<?xml version="1.0" encoding="utf-8"?>
<!-- Generator: Adobe Illustrator 22.0.1, SVG Export Plug-In . SVG Version: 6.00 Build 0)  -->
<svg version="1.1" id="Layer_1" xmlns="http://www.w3.org/2000/svg" xmlns:xlink="http://www.w3.org/1999/xlink" x="0px" y="0px"
	 viewBox="0 0 90 42" style="enable-background:new 0 0 90 42;" xml:space="preserve">
<style type="text/css">
	.st0{fill:#008140;}
	.st1{fill:#1F5F2F;}
	.st2{fill:#FEFEFE;}
</style>
<g>
	<path class="st0" d="M15.1,15.7c0.5,0.4,0.5,1,0,1.4L0.7,29c-1.8,1.5,0,3.7,3.2,3.7h68.5v4.7H90V4.7C90,2.1,86.5,0,82.2,0H3.9
		c-3.2,0-5,2.1-3.2,3.7L15.1,15.7z M15.1,15.7"/>
	<path class="st1" d="M72.4,42h9.8c4.3,0,7.8-2.1,7.8-4.7c0-2.6-3.5-4.7-7.8-4.7h-9.8V42z M72.4,42"/>
</g>
<g>
	<path class="st2" d="M25.4,12.3h1.2v8.3h-1.2V12.3z"/>
	<path class="st2" d="M35.1,19.3c-0.1,0.3-0.3,0.6-0.6,0.8c-0.3,0.2-0.5,0.4-0.9,0.5c-0.3,0.1-0.7,0.1-1.1,0.1c-0.3,0-0.6,0-0.9-0.1
		c-0.3-0.1-0.6-0.2-0.8-0.3s-0.5-0.3-0.7-0.4c-0.2-0.2-0.4-0.3-0.5-0.5v1.2h-1.2v-8.3h1.2v5c0,0.2,0.1,0.5,0.2,0.8
		c0.1,0.3,0.3,0.6,0.6,0.8s0.5,0.5,0.9,0.6s0.7,0.3,1.1,0.3c0.3,0,0.5,0,0.7-0.1c0.2-0.1,0.4-0.2,0.5-0.3c0.2-0.1,0.3-0.3,0.4-0.5
		c0.1-0.2,0.1-0.5,0.1-0.8v-5.8h1.2v5.8C35.3,18.6,35.2,19,35.1,19.3z"/>
	<path class="st2" d="M42.5,19.4c-0.2,0.2-0.3,0.3-0.6,0.5c-0.2,0.2-0.4,0.3-0.7,0.4s-0.5,0.2-0.8,0.3c-0.3,0.1-0.6,0.1-0.9,0.1
		c-0.4,0-0.8,0-1.1-0.1c-0.3-0.1-0.6-0.3-0.9-0.5c-0.3-0.2-0.4-0.5-0.6-0.8c-0.1-0.3-0.2-0.7-0.2-1.2v-5.8h1.2V18
		c0,0.3,0,0.6,0.1,0.8c0.1,0.2,0.2,0.4,0.4,0.5c0.2,0.1,0.3,0.2,0.5,0.3c0.2,0.1,0.4,0.1,0.7,0.1c0.4,0,0.8-0.1,1.1-0.3
		s0.6-0.4,0.9-0.6s0.4-0.5,0.6-0.8c0.1-0.3,0.2-0.5,0.2-0.8v-5h1.2v8.3h-1.2V19.4z"/>
	<path class="st2" d="M43.7,23.3c-0.1,0.2-0.2,0.3-0.4,0.4C43.2,23.9,43,24,42.7,24s-0.5,0.1-0.7,0.1c-0.6,0-1-0.1-1.4-0.4
		c-0.3-0.2-0.5-0.6-0.5-1v-0.4h-0.4v-0.9h1.6v1.3c0,0.2,0.1,0.4,0.2,0.4s0.3,0.1,0.5,0.1s0.3,0,0.5-0.1s0.2-0.2,0.2-0.4v-1.3h1.2
		v1.3C43.9,23,43.8,23.2,43.7,23.3z"/>
	<path class="st2" d="M48.1,9.1c0,0.2-0.1,0.4-0.2,0.5c-0.1,0.1-0.2,0.3-0.3,0.4s-0.2,0.3-0.3,0.4c-0.1,0.1-0.2,0.3-0.2,0.6v9.6
		h-1.2v-9.7c0-0.3,0-0.5,0.1-0.7c0.1-0.2,0.2-0.3,0.3-0.4c0.1-0.1,0.2-0.2,0.3-0.3c0.1-0.1,0.1-0.2,0.1-0.4c0-0.4-0.3-0.6-0.9-0.6
		c-0.4,0-0.7,0.1-0.9,0.3s-0.2,0.5-0.2,0.8h-1.2c0-0.3,0-0.6,0.1-0.8c0.1-0.3,0.2-0.5,0.4-0.7c0.2-0.2,0.4-0.3,0.7-0.4
		c0.3-0.1,0.6-0.2,1-0.2c0.7,0,1.3,0.1,1.6,0.4C47.9,8.2,48.1,8.6,48.1,9.1z"/>
	<path class="st2" d="M54.9,16.3c0-0.3,0-0.6-0.1-0.8c-0.1-0.2-0.2-0.4-0.4-0.5c-0.2-0.1-0.3-0.2-0.5-0.3c-0.2-0.1-0.4-0.1-0.7-0.1
		c-0.4,0-0.7,0.1-1.1,0.2c-0.3,0.2-0.6,0.4-0.9,0.6s-0.5,0.5-0.6,0.8c-0.2,0.3-0.2,0.6-0.2,0.8v3.5h-1.2v-8.3h1.2v2.7
		c0.2-0.2,0.3-0.3,0.6-0.5c0.2-0.2,0.4-0.3,0.7-0.4c0.2-0.1,0.5-0.2,0.8-0.3s0.6-0.1,0.9-0.1c0.4,0,0.8,0,1.1,0.1
		c0.3,0.1,0.6,0.3,0.9,0.5s0.4,0.5,0.6,0.8c0.1,0.3,0.2,0.7,0.2,1.2v4.4h-1.2V16.3z M51.7,12.3h4v1h-4V12.3z"/>
	<path class="st2" d="M64.2,19.3c-0.1,0.3-0.3,0.6-0.6,0.8c-0.3,0.2-0.5,0.4-0.9,0.5c-0.3,0.1-0.7,0.1-1.1,0.1c-0.3,0-0.6,0-0.9-0.1
		c-0.3-0.1-0.6-0.2-0.8-0.3s-0.5-0.3-0.7-0.4c-0.2-0.2-0.4-0.3-0.5-0.5v1.2h-1.2v-8.3h1.2v5c0,0.2,0.1,0.5,0.2,0.8
		c0.1,0.3,0.3,0.6,0.6,0.8s0.5,0.5,0.9,0.6s0.7,0.3,1.1,0.3c0.3,0,0.5,0,0.7-0.1c0.2-0.1,0.4-0.2,0.5-0.3c0.2-0.1,0.3-0.3,0.4-0.5
		c0.1-0.2,0.1-0.5,0.1-0.8v-5.8h1.2v5.8C64.4,18.6,64.3,19,64.2,19.3z"/>
	<path class="st2" d="M63.4,9.2h1.2v2h-1.2V9.2z"/>
</g>
</svg>
