<svg xmlns="http://www.w3.org/2000/svg" xmlns:xlink="http://www.w3.org/1999/xlink" version="1.1" width="841.889" height="595.281" enable-background="new 0 0 841.889 595.281" xml:space="preserve"><rect id="backgroundrect" width="100%" height="100%" x="0" y="0" fill="none" stroke="none"/>




<g class="currentLayer" style=""><title>Layer 1</title><circle fill="#753b16" cx="404.28399658203125" cy="297.6369934082031" r="238.81199645996094" id="svg_1" class="selected" fill-opacity="1"/><circle fill="#FFFFFF" cx="404.28399658203125" cy="297.6369934082031" r="157.72799682617188" id="svg_2"/><path fill="#145E10" d="M66.615,85.483v124.405c1.111,21.104,15.55,39.986,31.101,47.762l-6.664,246.589  c0,14.438,12.218,25.547,22.214,25.547c9.997,0,22.215-11.108,22.215-25.547l-8.886-246.589  c15.551-7.776,29.99-25.547,31.102-46.651V85.483c0,0,0,0,0-1.111c0-5.553-4.443-11.107-8.886-11.107  c-4.443,1.111-8.886,6.665-8.886,12.218l0,0v97.747l0,0l0,0c0,5.554-4.443,11.107-9.997,11.107c-5.554,0-9.997-4.442-9.997-11.107  l0,0l0,0V84.372c1.111-5.553-3.333-9.997-7.775-9.997c-4.443,0-7.775,4.443-7.775,11.107v98.858l0,0l0,0  c0,5.554-4.443,11.107-9.997,11.107c-5.554,0-9.997-4.443-9.997-11.107l0,0l0,0V85.483l0,0c0-6.664-3.333-11.107-8.886-11.107  C71.057,74.375,67.725,78.819,66.615,85.483z M82.165,202.113c3.333,4.443,4.443,6.665,11.108,7.775c2.222,0,4.443,0,6.665,0  c1.11,9.997,1.11,19.993,7.775,27.768c2.221,2.222,4.443,4.443,6.665,6.665c-7.775-1.111-15.55-1.111-22.215-6.665  c-6.664-5.553-8.885-13.328-9.997-22.214C82.165,210.999,82.165,202.113,82.165,202.113z" id="svg_3"/><path fill="#145E10" d="M688.638,257.65l-7.775,254.363c0,14.439,14.439,26.658,25.548,26.658c12.218,0,25.548-12.219,25.548-26.658  l-7.777-254.363c28.881-12.218,51.095-51.094,51.095-98.857c0-56.648-31.1-102.189-68.865-102.189  c-37.767,0-68.868,45.541-68.868,102.189C638.653,206.556,659.758,245.432,688.638,257.65z M653.093,158.793  c0-26.658,8.887-49.983,22.215-64.424c-5.553,13.33-7.775,29.991-7.775,46.651c0,45.541,19.994,83.308,46.652,97.747  c-2.222,0-4.442,1.111-7.774,1.111C677.53,239.878,653.093,203.223,653.093,158.793z" id="svg_4"/></g></svg>