<?xml version="1.0" encoding="utf-8"?>
<!-- Generator: Adobe Illustrator 16.0.0, SVG Export Plug-In . SVG Version: 6.00 Build 0)  -->
<!DOCTYPE svg PUBLIC "-//W3C//DTD SVG 1.1//EN" "http://www.w3.org/Graphics/SVG/1.1/DTD/svg11.dtd">
<svg version="1.1" id="Layer_1" xmlns="http://www.w3.org/2000/svg" xmlns:xlink="http://www.w3.org/1999/xlink" x="0px" y="0px"
	 width="841.889px" height="595.281px" viewBox="0 0 841.889 595.281" enable-background="new 0 0 841.889 595.281"
	 xml:space="preserve">
<g>
	<g>
		<path fill="#E61E25" d="M734.707,454.518c-71.93,81.852-184.785,120.297-313.763,120.297
			c-132.697,0-250.514-42.166-321.203-130.218V210.206h642.406L734.707,454.518z"/>
		<path fill="#E61E25" d="M742.148,454.518c0,1.24-1.24,3.721-1.24,4.961c-69.449,79.371-182.304,122.776-318.723,122.776
			c-141.379,0-257.954-47.126-327.404-132.697c-1.239-1.24-1.239-2.48-1.239-4.961V210.206c0-3.721,3.72-7.441,7.44-7.441h642.406
			c2.48,0,3.721,1.24,4.961,2.48s2.48,3.721,2.48,4.961 M107.183,442.117c66.969,80.611,178.584,125.257,313.762,125.257
			c131.458,0,239.353-40.926,306.321-116.575l7.441-233.152H107.183V442.117z"/>
	</g>
	<g>
		<ellipse fill="#FFFFFF" cx="420.945" cy="205.245" rx="323.684" ry="174.863"/>
		<path fill="#6B6C6C" d="M420.945,387.55c-182.305,0-331.124-81.851-331.124-182.305S238.64,22.94,420.945,22.94
			S752.07,104.791,752.07,205.245S603.249,387.55,420.945,387.55z M420.945,37.822c-173.623,0-316.242,75.65-316.242,167.423
			s142.619,167.423,316.242,167.423c174.863,0,316.243-75.65,316.243-167.423S595.808,37.822,420.945,37.822z"/>
	</g>
	<g>
		<path fill="#225F30" d="M704.943,235.009c-12.401,39.686-55.808,60.769-90.532,80.611
			c-58.287,32.244-126.497,39.686-193.466,39.686c-116.575,0-210.828-35.965-269.116-93.013
			c-58.287-57.048,2.48-153.781,44.646-179.824c42.166-24.804,453.9,22.323,453.9,22.323s64.489-17.363,58.288,100.453
			C707.423,216.406,707.423,225.088,704.943,235.009z"/>
	</g>
	<g>
		<ellipse fill="#FFFFFF" cx="420.945" cy="171.76" rx="279.038" ry="151.301"/>
		<path fill="#225F30" d="M420.945,330.502c-157.501,0-285.238-70.689-285.238-158.741S263.444,13.019,420.945,13.019
			S706.183,83.709,706.183,171.76C707.423,258.572,578.446,330.502,420.945,330.502z M420.945,27.901
			c-148.819,0-270.356,64.488-270.356,143.859c0,79.37,121.537,143.859,271.597,143.859c150.061,0,271.597-64.489,271.597-143.859
			C692.541,92.389,571.005,27.901,420.945,27.901z"/>
	</g>
	<g>
		<path fill="#6B6C6C" d="M659.057,242.45c-55.808-35.965-141.379-58.288-238.112-58.288c-96.732,0-183.544,22.323-238.111,58.288
			c0,0,80.61,79.371,238.111,73.17C613.17,306.939,659.057,242.45,659.057,242.45z"/>
	</g>
	<g>
		<g>
			<defs>
				<ellipse id="SVGID_1_" cx="423.425" cy="164.32" rx="279.038" ry="151.3"/>
			</defs>
			<clipPath id="SVGID_2_">
				<use xlink:href="#SVGID_1_"  overflow="visible"/>
			</clipPath>
			<g clip-path="url(#SVGID_2_)">
				<g>
					<path fill="#FFFFFF" d="M647.896,257.332c0,48.367-55.808,89.292-125.257,89.292c-69.45,0-125.257-39.685-125.257-89.292
						c0-48.366,55.807-88.052,125.257-88.052C592.088,169.28,647.896,207.725,647.896,257.332"/>
				</g>
				<g>
					<path fill="#333333" d="M522.639,347.864c-69.45,0-126.497-40.925-126.497-90.532c0-49.606,57.047-90.532,126.497-90.532
						c69.449,0,126.496,40.926,126.496,90.532C649.135,306.939,592.088,347.864,522.639,347.864z M522.639,170.52
						c-68.21,0-122.776,38.445-122.776,86.812c0,48.367,55.807,86.812,122.776,86.812c68.209,0,122.776-38.444,122.776-86.812
						C645.415,208.966,590.848,170.52,522.639,170.52z"/>
				</g>
				<g>
					<path fill="#333333" d="M508.996,199.044c0,0,49.607,37.205,50.847,69.449c0,0,9.922-33.484-34.725-70.689L508.996,199.044z"/>
				</g>
				<g>
					<path fill="#333333" d="M500.316,187.883v11.161c0,0-54.567,2.48-75.65,37.205
						C424.665,236.249,435.826,195.323,500.316,187.883"/>
				</g>
				<g>
					<path fill="#333333" d="M540.001,187.883v11.161c0,0,55.807,2.48,76.89,37.205C616.891,236.249,605.73,195.323,540.001,187.883
						"/>
				</g>
				<g>
					<path fill="#FFFFFF" d="M453.189,257.332c0,48.367-55.807,89.292-125.256,89.292c-69.45,0-125.258-39.685-125.258-89.292
						c0-48.366,55.808-88.052,125.258-88.052C397.382,168.04,453.189,207.725,453.189,257.332"/>
				</g>
				<g>
					<path fill="#333333" d="M327.933,347.864c-69.45,0-126.497-40.925-126.497-90.532c0-49.606,57.047-90.532,126.497-90.532
						c69.449,0,126.496,40.926,126.496,90.532C454.429,306.939,397.382,347.864,327.933,347.864z M327.933,170.52
						c-68.21,0-122.777,38.445-122.777,86.812c0,48.367,55.808,86.812,122.777,86.812c68.209,0,122.775-38.444,122.775-86.812
						C450.709,208.966,396.142,170.52,327.933,170.52z"/>
				</g>
				<g>
					<path fill="#333333" d="M314.29,199.044c0,0,49.607,37.205,50.847,69.449c0,0,9.922-33.484-34.725-70.689L314.29,199.044z"/>
				</g>
				<g>
					<path fill="#333333" d="M305.61,187.883v11.161c0,0-54.567,2.48-75.65,37.205C229.959,236.249,241.12,195.323,305.61,187.883"
						/>
				</g>
				<g>
					<path fill="#333333" d="M345.295,187.883v11.161c0,0,55.807,2.48,76.89,37.205
						C422.185,236.249,409.783,195.323,345.295,187.883"/>
				</g>
				<g>
					<path fill="#FFFFFF" d="M547.442,123.393c0,49.607-55.808,88.053-125.257,88.053s-125.257-39.686-125.257-88.053
						c0-48.366,55.808-89.292,125.257-89.292S547.442,73.787,547.442,123.393"/>
				</g>
				<g>
					<path fill="#333333" d="M422.185,213.926c-69.449,0-126.497-40.925-126.497-90.532c0-49.606,57.048-90.531,126.497-90.531
						s126.497,40.925,126.497,90.531C548.682,173.001,491.634,213.926,422.185,213.926z M422.185,36.582
						c-68.209,0-122.776,38.445-122.776,86.812c0,48.367,55.808,86.812,122.776,86.812c68.209,0,122.776-38.445,122.776-86.812
						C544.961,75.027,490.394,36.582,422.185,36.582z"/>
				</g>
				<g>
					<path fill="#333333" d="M408.543,65.106c0,0,49.606,37.205,50.847,69.449c0,0,9.921-33.484-34.725-70.689L408.543,65.106z"/>
				</g>
				<g>
					<path fill="#333333" d="M399.863,53.944v11.162c0,0-54.567,2.48-75.65,37.205C324.212,102.311,335.373,61.385,399.863,53.944"
						/>
				</g>
				<g>
					<path fill="#333333" d="M439.547,53.944v11.162c0,0,55.808,2.48,76.891,37.205C516.438,102.311,504.036,61.385,439.547,53.944"
						/>
				</g>
			</g>
		</g>
	</g>
</g>
</svg>
