<?xml version="1.0" encoding="utf-8"?>
<!-- Generator: Adobe Illustrator 16.0.0, SVG Export Plug-In . SVG Version: 6.00 Build 0)  -->
<!DOCTYPE svg PUBLIC "-//W3C//DTD SVG 1.1//EN" "http://www.w3.org/Graphics/SVG/1.1/DTD/svg11.dtd">
<svg version="1.1" id="Layer_1" xmlns="http://www.w3.org/2000/svg" xmlns:xlink="http://www.w3.org/1999/xlink" x="0px" y="0px"
	 width="300px" height="343px" viewBox="0 0 300 343" enable-background="new 0 0 300 343" xml:space="preserve">
<g>
	<g>
		<g>
			<g>
				<defs>
					<rect id="SVGID_1_" x="143.027" y="258.244" width="96.259" height="38.887"/>
				</defs>
				<clipPath id="SVGID_2_">
					<use xlink:href="#SVGID_1_"  overflow="visible"/>
				</clipPath>
				<ellipse clip-path="url(#SVGID_2_)" fill="#686A6B" cx="191.156" cy="299.68" rx="46.855" ry="33.146"/>
			</g>
		</g>
	</g>
	<g>
		<path fill="#999A9B" d="M195.762,67.164c0,21.633,17.534,39.17,39.17,39.17c21.635,0,39.166-17.537,39.166-39.17
			c0-21.627-17.531-39.168-39.166-39.168C213.296,27.996,195.762,45.537,195.762,67.164z"/>
		<path fill="#FFFFFF" d="M200.372,67.164c0,19.089,15.474,34.56,34.56,34.56c19.09,0,34.562-15.471,34.562-34.56
			s-15.472-34.565-34.562-34.565C215.846,32.598,200.372,48.074,200.372,67.164z"/>
		<g>
			<path fill="#00A651" d="M236.658,36.896c7.074,0.397,13.492,3.221,18.451,7.643l-18.451,18.457V36.896z"/>
			<path fill="#00A651" d="M239.104,65.437l18.453-18.453c4.428,4.958,7.248,11.38,7.644,18.453H239.104z"/>
			<path fill="#00A651" d="M233.2,36.896v26.1l-18.445-18.457C219.714,40.116,226.137,37.292,233.2,36.896z"/>
			<path fill="#00A651" d="M239.104,68.892H265.2c-0.396,7.073-3.211,13.492-7.644,18.452L239.104,68.892z"/>
			<path fill="#00A651" d="M230.764,65.437h-26.101c0.399-7.073,3.217-13.494,7.644-18.453L230.764,65.437z"/>
			<path fill="#00A651" d="M236.658,71.337l18.451,18.449c-4.959,4.43-11.377,7.248-18.451,7.646V71.337z"/>
			<path fill="#00A651" d="M230.764,68.892l-18.457,18.452c-4.427-4.96-7.246-11.379-7.644-18.452H230.764z"/>
			<path fill="#00A651" d="M233.2,71.337v26.095c-7.063-0.398-13.486-3.217-18.445-7.646L233.2,71.337z"/>
		</g>
	</g>
	<g>
		
			<path fill="#FFFFFF" stroke="#999A9B" stroke-width="2" stroke-linecap="round" stroke-linejoin="round" stroke-miterlimit="10" d="
			M145.152,66.76h91.421c0,0-25.646,103.142-16.146,224.75h-59.133C170.795,169.902,145.152,66.76,145.152,66.76z"/>
		<g>
			<path fill="#999A9B" d="M135.291,6c21.059,11.292,29.529,16.842,30.932,26.894c1.407,10.053,21.405,153.062,21.405,153.062
				l-5.672,0.793c0,0-19.103-136.617-20.847-149.092c-1.746-12.473-3.846-12.325-29.113-27.307L135.291,6z"/>
			<path fill="#999A9B" d="M136.344,8.194c23.471,15.29,26.764,15.4,28.004,24.271c1.242,8.878,21.438,153.34,21.438,153.34
				l-0.779,0.11c0,0-19.256-139.208-20.797-150.224c-1.541-11.015-4.36-12.176-28.398-26.803L136.344,8.194z"/>
		</g>
		<g>
			<g>
				<g>
					<defs>
						<rect id="SVGID_3_" x="142.613" y="109.713" width="100.88" height="176.422"/>
					</defs>
					<clipPath id="SVGID_4_">
						<use xlink:href="#SVGID_3_"  overflow="visible"/>
					</clipPath>
					<path clip-path="url(#SVGID_4_)" fill="#ED1C24" d="M170.027,283.377c6.24-96.084-8.844-180.22-14.743-208.486h71.157
						c-5.901,28.266-20.988,112.402-14.748,208.486H170.027z"/>
				</g>
			</g>
		</g>
	</g>
</g>
<g>
	<path fill="#686A6B" d="M99.196,199.047v84.721c4.054,14.604,27.316,4.934,27.316,19.291v2.914H60.135v-2.914
		c0-14.357,23.255-4.688,27.312-19.291v-84.721C82.791,184.354,103.859,184.354,99.196,199.047z"/>
	<g id="Ice">
		<g>
			<g>
				<g>
					<defs>
						<rect id="SVGID_5_" x="46.422" y="94.489" width="82.209" height="42.425"/>
					</defs>
					<clipPath id="SVGID_6_">
						<use xlink:href="#SVGID_5_"  overflow="visible"/>
					</clipPath>
					
						<path clip-path="url(#SVGID_6_)" fill="#686A6B" stroke="#FFFFFF" stroke-width="4" stroke-linecap="round" stroke-linejoin="round" stroke-miterlimit="10" d="
						M128.632,133.153c0,19.521-18.404,35.349-41.106,35.349c-22.7,0-41.103-15.828-41.103-35.349
						c0-19.516,18.403-35.339,41.103-35.339C110.228,97.814,128.632,113.638,128.632,133.153z"/>
				</g>
			</g>
		</g>
		<g>
			<g>
				<g>
					<defs>
						<rect id="SVGID_7_" x="70.245" y="118.311" width="82.209" height="42.426"/>
					</defs>
					<clipPath id="SVGID_8_">
						<use xlink:href="#SVGID_7_"  overflow="visible"/>
					</clipPath>
					
						<ellipse clip-path="url(#SVGID_8_)" fill="#1D5F30" stroke="#FFFFFF" stroke-width="4" stroke-linecap="round" stroke-linejoin="round" stroke-miterlimit="10" cx="111.349" cy="156.979" rx="41.105" ry="35.346"/>
				</g>
			</g>
		</g>
		<g>
			<g>
				<g>
					<defs>
						<rect id="SVGID_9_" x="30.886" y="118.311" width="87.29" height="42.426"/>
					</defs>
					<clipPath id="SVGID_10_">
						<use xlink:href="#SVGID_9_"  overflow="visible"/>
					</clipPath>
					
						<ellipse clip-path="url(#SVGID_10_)" fill="#999A9B" stroke="#FFFFFF" stroke-width="4" stroke-linecap="round" stroke-linejoin="round" stroke-miterlimit="10" cx="71.99" cy="156.979" rx="41.105" ry="35.346"/>
				</g>
			</g>
		</g>
	</g>
	<g>
		<g>
			<g>
				<g>
					<defs>
						<rect id="SVGID_11_" x="8.799" y="163.482" width="169.713" height="61.713"/>
					</defs>
					<clipPath id="SVGID_12_">
						<use xlink:href="#SVGID_11_"  overflow="visible"/>
					</clipPath>
					<path clip-path="url(#SVGID_12_)" fill="#ED1C24" d="M160.904,169.184c0,15.375-11.562,27.837-25.824,27.837H49.888
						c-14.263,0-25.824-12.463-25.824-27.837l0,0c0-15.373,11.561-27.837,25.824-27.837h85.192
						C149.342,141.346,160.904,153.811,160.904,169.184L160.904,169.184z"/>
				</g>
			</g>
		</g>
		<g>
			<g>
				<g>
					<defs>
						<rect id="SVGID_13_" x="56.714" y="191.736" width="74.004" height="42.514"/>
					</defs>
					<clipPath id="SVGID_14_">
						<use xlink:href="#SVGID_13_"  overflow="visible"/>
					</clipPath>
					<path clip-path="url(#SVGID_14_)" fill="#ED1C24" d="M31.123,167.982l121.244,0.426c0,0,3.498,20.549-14.37,22.693
						c-7.848,0.939-16.077,3.904-21.048,9.727c-6.054,7.094-2.336,16.264-5.607,24.098c-1.68,4.021-5.756,7.818-10.872,7.957
						c0,0-13.389,0-13.422,0c-18.26,0-9.607-20.262-15.792-29.49c-3.041-4.535-18.73-14.822-25.166-14.422
						c-3.325,0.207-0.157-0.75-3.264-0.414C42.825,188.557,32.018,200.221,31.123,167.982z"/>
				</g>
			</g>
		</g>
	</g>
</g>
</svg>
