<?xml version="1.0" encoding="utf-8"?>
<!-- Generator: Adobe Illustrator 16.0.0, SVG Export Plug-In . SVG Version: 6.00 Build 0)  -->
<!DOCTYPE svg PUBLIC "-//W3C//DTD SVG 1.1//EN" "http://www.w3.org/Graphics/SVG/1.1/DTD/svg11.dtd">
<svg version="1.1" id="Layer_1" xmlns="http://www.w3.org/2000/svg" xmlns:xlink="http://www.w3.org/1999/xlink" x="0px" y="0px"
	 width="841.889px" height="595.281px" viewBox="0 0 841.889 595.281" enable-background="new 0 0 841.889 595.281"
	 xml:space="preserve">
<g>
	<path fill="#FFFFFF" stroke="#FFFFFF" stroke-width="4" stroke-miterlimit="10" d="M345.871,276.502
		c-10.52,29.646-16.259,103.287-48.774,144.41c-32.516,41.124-103.286,87.028-129.109,72.683c0,0-15.301-84.159,29.647-144.409
		c44.949-60.251,79.378-74.596,110.938-99.461c0,0-5.738-31.56,5.737-50.688c11.477-19.127,23.909-8.607,27.735,6.695
		c3.825,15.302,5.738,26.778,5.738,26.778s23.909-9.563,38.254-5.738c15.302,4.782,32.516,33.473-20.083,43.037
		C355.434,271.719,345.871,276.502,345.871,276.502z"/>
	<path fill="#145E10" stroke="#145E10" stroke-width="1.5" stroke-miterlimit="10" d="M345.871,276.502
		c-10.52,29.646-16.259,103.287-48.774,144.41c-32.516,41.124-103.286,87.028-129.109,72.683c0,0-15.301-84.159,29.647-144.409
		c44.949-60.251,79.378-74.596,110.938-99.461c0,0-5.738-31.56,5.737-50.688c11.477-19.127,23.909-8.607,27.735,6.695
		c3.825,15.302,5.738,26.778,5.738,26.778s23.909-9.563,38.254-5.738c15.302,4.782,32.516,33.473-20.083,43.037
		C355.434,271.719,345.871,276.502,345.871,276.502z"/>
</g>
<g>
	<path fill="#FFFFFF" stroke="#FFFFFF" stroke-width="4" stroke-miterlimit="10" d="M531.404,301.367
		c-21.038,22.953-54.512,89.897-99.46,115.719c-44.949,25.822-128.152,41.123-146.323,19.128c0,0,17.214-84.159,81.291-122.414
		c64.076-38.254,102.33-39.21,140.585-49.731c0,0,6.694-31.56,24.866-44.948c18.17-13.39,25.82,0.956,23.908,16.258
		c-1.914,15.302-4.782,26.778-4.782,26.778s25.821,0,38.255,9.563c12.432,9.563,18.17,43.036-35.387,32.517
		C542.881,301.367,531.404,301.367,531.404,301.367z"/>
	
		<path fill="#6B6B6B" stroke="#6B6B6B" stroke-width="1.5" stroke-linecap="round" stroke-linejoin="round" stroke-miterlimit="10" d="
		M531.404,301.367c-21.038,22.953-54.512,89.897-99.46,115.719c-44.949,25.822-128.152,41.123-146.323,19.128
		c0,0,17.214-84.159,81.291-122.414c64.076-38.254,102.33-39.21,140.585-49.731c0,0,6.694-31.56,24.866-44.948
		c18.17-13.39,25.82,0.956,23.908,16.258c-1.914,15.302-4.782,26.778-4.782,26.778s25.821,0,38.255,9.563
		c12.432,9.563,18.17,43.036-35.387,32.517C542.881,301.367,531.404,301.367,531.404,301.367z"/>
</g>
<g>
	<path fill="#FFFFFF" stroke="#FFFFFF" stroke-width="4" stroke-miterlimit="10" d="M645.212,390.308
		c-28.691,13.389-84.16,63.119-135.803,69.814c-51.644,6.694-134.847-9.564-142.498-37.299c0,0,46.861-71.727,121.457-83.203
		c74.597-11.476,109.025,1.913,149.191,6.694c0,0,18.172-26.777,40.168-32.517c21.996-5.737,22.953,10.521,15.302,23.909
		c-7.651,13.39-14.346,23.909-14.346,23.909s23.909,9.563,31.56,22.953c7.651,13.389,0.957,46.861-44.948,16.258
		C655.732,394.134,645.212,390.308,645.212,390.308z"/>
	<path fill="#145E10" stroke="#145E10" stroke-width="1.5" stroke-miterlimit="10" d="M645.212,390.308
		c-28.691,13.389-84.16,63.119-135.803,69.814c-51.644,6.694-134.847-9.564-142.498-37.299c0,0,46.861-71.727,121.457-83.203
		c74.597-11.476,109.025,1.913,149.191,6.694c0,0,18.172-26.777,40.168-32.517c21.996-5.737,22.953,10.521,15.302,23.909
		c-7.651,13.39-14.346,23.909-14.346,23.909s23.909,9.563,31.56,22.953c7.651,13.389,0.957,46.861-44.948,16.258
		C655.732,394.134,645.212,390.308,645.212,390.308z"/>
</g>
<path fill="none" stroke="#FFFFFF" stroke-width="4" stroke-linecap="round" stroke-linejoin="round" stroke-miterlimit="10" d="
	M66.615,465.861c0-29.647,23.909-53.556,52.6-53.556h75.552l29.646,57.381h387.325l32.517-57.381h75.553
	c29.646,0,52.6,23.908,52.6,53.556"/>
<path fill="#ED1C24" d="M654.776,421.868h65.032c29.646,0,55.468,25.822,55.468,55.469v54.513c0,29.647-25.821,52.6-55.468,52.6
	H119.215c-28.691,0-52.6-23.909-52.6-52.6v-54.513c0-29.646,23.909-55.469,52.6-55.469h70.77l29.648,57.382H622.26L654.776,421.868z
	"/>
<g>
	<g>
		<path fill="#FFFFFF" stroke="#FFFFFF" stroke-width="4" stroke-miterlimit="10" d="M345.871,97.662
			c-10.52,29.647-16.259,103.287-48.774,144.411c-32.516,41.123-103.286,87.028-129.109,72.683c0,0-15.301-84.16,29.647-144.41
			c44.949-60.251,79.378-74.596,110.938-98.505c0,0-5.738-31.56,5.737-50.687c11.477-19.128,23.909-8.607,27.735,6.694
			c4.781,14.345,6.695,25.822,6.695,25.822s23.908-9.564,38.254-5.738c15.302,4.781,32.516,33.472-20.083,43.036
			C355.434,92.88,345.871,97.662,345.871,97.662z"/>
		<path fill="#145E10" stroke="#145E10" stroke-width="1.5" stroke-miterlimit="10" d="M345.871,97.662
			c-10.52,29.647-16.259,103.287-48.774,144.411c-32.516,41.123-103.286,87.028-129.109,72.683c0,0-15.301-84.16,29.647-144.41
			c44.949-60.251,79.378-74.596,110.938-98.505c0,0-5.738-31.56,5.737-50.687c11.477-19.128,23.909-8.607,27.735,6.694
			c4.781,14.345,6.695,25.822,6.695,25.822s23.908-9.564,38.254-5.738c15.302,4.781,32.516,33.472-20.083,43.036
			C355.434,92.88,345.871,97.662,345.871,97.662z"/>
	</g>
	<g>
		<path fill="#FFFFFF" stroke="#FFFFFF" stroke-width="4" stroke-miterlimit="10" d="M531.404,122.528
			c-21.038,22.953-54.512,89.897-99.46,115.719c-44.949,25.822-128.152,41.124-146.323,19.127c0,0,17.214-84.159,81.291-122.414
			c64.076-38.253,102.33-39.21,140.585-49.73c0,0,6.694-31.559,24.866-44.948c18.17-13.39,25.82,0.956,23.908,16.258
			c-1.914,15.302-4.782,26.778-4.782,26.778s25.821,0,38.255,9.563c12.432,9.564,18.17,43.037-35.387,32.516
			C542.881,122.528,531.404,122.528,531.404,122.528z"/>
		
			<path fill="#6B6B6B" stroke="#6B6B6B" stroke-width="1.5" stroke-linecap="round" stroke-linejoin="round" stroke-miterlimit="10" d="
			M531.404,122.528c-21.038,22.953-54.512,89.897-99.46,115.719c-44.949,25.822-128.152,41.124-146.323,19.127
			c0,0,17.214-84.159,81.291-122.414c64.076-38.253,102.33-39.21,140.585-49.73c0,0,6.694-31.559,24.866-44.948
			c18.17-13.39,25.82,0.956,23.908,16.258c-1.914,15.302-4.782,26.778-4.782,26.778s25.821,0,38.255,9.563
			c12.432,9.564,18.17,43.037-35.387,32.516C542.881,122.528,531.404,122.528,531.404,122.528z"/>
	</g>
	<g>
		<path fill="#FFFFFF" stroke="#FFFFFF" stroke-width="4" stroke-miterlimit="10" d="M645.212,211.469
			c-28.691,13.389-84.16,63.12-135.803,69.813c-51.644,6.695-134.847-9.563-142.498-37.297c0,0,46.861-71.727,121.457-83.203
			c74.597-11.477,109.025,1.913,149.191,6.693c0,0,18.172-26.778,40.168-32.515c21.996-5.739,22.953,10.52,15.302,23.908
			c-7.651,13.39-14.346,23.909-14.346,23.909s23.909,9.564,31.56,22.953c7.651,13.39,0.957,46.862-44.948,16.258
			C655.732,215.294,645.212,211.469,645.212,211.469z"/>
		<path fill="#145E10" stroke="#145E10" stroke-width="1.5" stroke-miterlimit="10" d="M645.212,211.469
			c-28.691,13.389-84.16,63.12-135.803,69.813c-51.644,6.695-134.847-9.563-142.498-37.297c0,0,46.861-71.727,121.457-83.203
			c74.597-11.477,109.025,1.913,149.191,6.693c0,0,18.172-26.778,40.168-32.515c21.996-5.739,22.953,10.52,15.302,23.908
			c-7.651,13.39-14.346,23.909-14.346,23.909s23.909,9.564,31.56,22.953c7.651,13.39,0.957,46.862-44.948,16.258
			C655.732,215.294,645.212,211.469,645.212,211.469z"/>
	</g>
	<path fill="none" stroke="#FFFFFF" stroke-width="4" stroke-linecap="round" stroke-linejoin="round" stroke-miterlimit="10" d="
		M66.615,287.021c0-29.647,23.909-53.557,52.6-53.557h75.552l29.646,57.382h387.325l32.517-57.382h75.553
		c29.646,0,52.6,23.909,52.6,53.557"/>
	<path fill="#ED1C24" d="M654.776,243.03h65.032c29.646,0,55.468,25.821,55.468,55.468v54.513c0,29.647-25.821,52.6-55.468,52.6
		H119.215c-29.647,0-52.6-23.908-52.6-52.6v-54.513c0-29.647,23.909-55.468,52.6-55.468h70.77l29.648,57.381H622.26L654.776,243.03z
		"/>
</g>
</svg>
