<svg xmlns="http://www.w3.org/2000/svg" xmlns:xlink="http://www.w3.org/1999/xlink" version="1.1" width="300" height="343" enable-background="new 0 0 300 343" xml:space="preserve"><rect id="backgroundrect" width="100%" height="100%" x="0" y="0" fill="none" stroke="none"/>

<g class="currentLayer" style=""><title>Layer 1</title><g id="svg_1" class="" fill-opacity="1" fill="#753b16">
	<g id="svg_2" fill="#753b16">
		<g id="svg_3" fill="#753b16">
			<g id="svg_4" fill="#753b16">
				<g id="svg_5" fill="#753b16">
					<g id="svg_6" fill="#753b16">
						<path id="SVGID_1_" marker-end="none" marker-start="none" fill="#753b16" d="M285.878,243.221l-83.173,50.629        c-7.529,4.582-17.673,1.659-22.664-6.521L102.804,160.57c-2.399-4.025-3.15-8.217-2.53-12.554l11.454-74.699        c0.753-4.925,3.355-8.742,6.952-10.929c3.592-2.185,8.184-2.759,12.907-1.159l71.66,24.104        c4.144,1.444,7.524,4.041,9.996,8.007l77.233,126.758C295.466,228.283,293.4,238.635,285.878,243.221z M132.218,70.321        c-4.495-1.961-9.819,0.054-11.881,4.553c-2.062,4.471-0.097,9.726,4.399,11.717c4.487,1.984,9.812-0.049,11.879-4.527        C138.683,77.584,136.708,72.319,132.218,70.321z"/>
					</g>
					<g id="svg_7" fill="#753b16">
						<g id="svg_8" fill="#753b16">
							<defs>
								<path id="SVGID_2_" d="M285.878,243.221l-83.173,50.629c-7.529,4.582-17.673,1.659-22.664-6.521L102.804,160.57          c-2.399-4.025-3.15-8.217-2.53-12.554l11.454-74.699c0.753-4.925,3.355-8.742,6.952-10.929          c3.592-2.185,8.184-2.759,12.907-1.159l71.66,24.104c4.144,1.444,7.524,4.041,9.996,8.007l77.233,126.758          C295.466,228.283,293.4,238.635,285.878,243.221z M132.218,70.321c-4.495-1.961-9.819,0.054-11.881,4.553          c-2.062,4.471-0.097,9.726,4.399,11.717c4.487,1.984,9.812-0.049,11.879-4.527          C138.683,77.584,136.708,72.319,132.218,70.321z" fill="#753b16"/>
							</defs>
							<clipPath id="SVGID_3_">
								<use xlink:href="#SVGID_2_" overflow="visible" id="svg_9"/>
							</clipPath>
							<g clip-path="url(#SVGID_3_)" id="svg_10" fill="#753b16">
								
									<line fill="none" stroke="#1D5F30" stroke-width="10" stroke-miterlimit="10" x1="250.51199340820312" y1="269.1759948730469" x2="126.73600006103516" y2="260.93798828125" id="svg_11"/>
								
									<line fill="none" stroke="#1D5F30" stroke-width="10" stroke-miterlimit="10" x1="263.0849914550781" y1="284.22698974609375" x2="139.31100463867188" y2="275.989990234375" id="svg_12"/>
							</g>
						</g>
					</g>
					<g id="svg_13" fill="#753b16">
						<g id="svg_14" fill="#753b16">
							<defs>
								<path id="SVGID_4_" d="M285.878,243.221l-83.173,50.629c-7.529,4.582-17.673,1.659-22.664-6.521L102.804,160.57          c-2.399-4.025-3.15-8.217-2.53-12.554l11.454-74.699c0.753-4.925,3.355-8.742,6.952-10.929          c3.592-2.185,8.184-2.759,12.907-1.159l71.66,24.104c4.144,1.444,7.524,4.041,9.996,8.007l77.233,126.758          C295.466,228.283,293.4,238.635,285.878,243.221z M132.218,70.321c-4.495-1.961-9.819,0.054-11.881,4.553          c-2.062,4.471-0.097,9.726,4.399,11.717c4.487,1.984,9.812-0.049,11.879-4.527          C138.683,77.584,136.708,72.319,132.218,70.321z" fill="#753b16"/>
							</defs>
							<clipPath id="SVGID_5_">
								<use xlink:href="#SVGID_4_" overflow="visible" id="svg_15"/>
							</clipPath>
							<g clip-path="url(#SVGID_5_)" id="svg_16" fill="#753b16">
								
									<line fill="none" stroke="#1D5F30" stroke-width="10" stroke-miterlimit="10" x1="212.1540069580078" y1="80.99800109863281" x2="88.37999725341797" y2="72.75900268554688" id="svg_17"/>
								
									<line fill="none" stroke="#1D5F30" stroke-width="10" stroke-miterlimit="10" x1="224.72900390625" y1="96.0510025024414" x2="100.95500183105469" y2="87.81300354003906" id="svg_18"/>
							</g>
						</g>
					</g>
				</g>
				<g id="svg_19" fill="#753b16">
					<path d="M123.417,71.195c-9.787,3.291-53.735,5.188-101.351-18.242C10.323,47.174,4.957,38.153,7.34,28.201       C10.059,16.865,23.285,5.275,40.718,5.502c22.034,0.289,46.747,19.292,75.557,58.097c0.099,0.134,0.226,0.232,0.354,0.324       c1.239-1.042,2.383-1.76,2.774-1.947c-0.052-0.131-0.175-0.385-0.263-0.505C89.621,21.713,63.984,2.239,40.764,1.934       C23.547,1.71,7.341,12.881,3.871,27.372c-2.807,11.713,3.25,22.205,16.62,28.783c53.276,26.215,97.554,20.613,104.063,18.424       c0.129-0.042,0.249-0.099,0.36-0.169c0.696-0.423,1.033-1.285,0.763-2.09C125.363,71.385,124.351,70.882,123.417,71.195z" id="svg_20" fill="#753b16"/>
				</g>
			</g>
		</g>
	</g>
	<g id="svg_21" fill="#753b16">
		<g id="svg_22" fill="#753b16">
			<path fill="#753b16" d="M156.021,109.066c-1.746,1.034-3.42,1.302-5.016,0.806c-1.404-0.411-2.672-1.572-3.803-3.483l-1.278-2.16     l-9.815,5.808l-0.705-1.191l20.646-12.217l1.983,3.352c1.114,1.887,1.526,3.503,1.233,4.851     C158.902,106.59,157.82,108.002,156.021,109.066z M155.395,107.828c1.486-0.879,2.301-2.031,2.442-3.457     c0.206-0.959-0.153-2.222-1.079-3.787l-1.212-2.048l-8.407,4.975l1.3,2.197c0.882,1.489,1.948,2.399,3.202,2.732     C152.893,108.773,154.145,108.569,155.395,107.828z" id="svg_23"/>
			<path fill="#753b16" d="M147.746,129.7l6.074-12.041l-0.312-0.62l-9.816,5.808l-0.706-1.191l20.646-12.217l1.39,2.347     c1.188,2.01,1.705,3.684,1.545,5.018c-0.215,1.838-1.313,3.342-3.295,4.514c-1.722,1.018-3.328,1.307-4.819,0.866     c-1.492-0.44-2.744-1.485-3.754-3.133l-6.113,12.064L147.746,129.7z M162.583,120.066c1.903-1.126,2.745-2.53,2.524-4.209     c0.016-0.747-0.482-1.978-1.496-3.69l-0.484-0.819l-8.447,4.998l0.926,1.564c0.881,1.489,1.867,2.382,2.957,2.676     C159.834,121.072,161.176,120.899,162.583,120.066z" id="svg_24"/>
			<path fill="#753b16" d="M172.195,147.463c-2.92,1.728-5.99,2.221-9.209,1.478c-3.262-0.753-5.678-2.457-7.25-5.113     c-1.604-2.706-1.953-5.649-1.053-8.829c0.938-3.172,2.866-5.62,5.787-7.348c2.92-1.727,5.981-2.233,9.188-1.514     c3.26,0.752,5.685,2.469,7.271,5.15c1.57,2.656,1.901,5.595,0.991,8.816C177.023,143.282,175.113,145.736,172.195,147.463z      M171.468,146.235c2.581-1.527,4.277-3.687,5.089-6.48c0.838-2.808,0.559-5.392-0.838-7.75c-1.41-2.384-3.548-3.884-6.412-4.501     c-2.852-0.594-5.553-0.133-8.105,1.378c-2.528,1.497-4.246,3.651-5.149,6.466c-0.838,2.809-0.551,5.404,0.86,7.788     c1.396,2.358,3.523,3.847,6.39,4.464C166.191,148.201,168.913,147.747,171.468,146.235z" id="svg_25"/>
			<path fill="#753b16" d="M175.199,176.811l15.662-13.593l-21.854,3.932l13.923-17.338l-19.498,7.11l-0.684-1.152l24.049-8.7     l-14.646,18.168l22.976-4.09l-19.224,16.854L175.199,176.811z" id="svg_26"/>
			<path fill="#753b16" d="M199.454,193.532c-2.92,1.728-5.99,2.22-9.209,1.477c-3.263-0.752-5.679-2.456-7.25-5.112     c-1.603-2.707-1.952-5.648-1.054-8.83c0.938-3.17,2.869-5.618,5.789-7.348c2.92-1.728,5.98-2.232,9.188-1.515     c3.262,0.753,5.686,2.47,7.271,5.149c1.572,2.656,1.9,5.597,0.992,8.814C204.283,189.35,202.374,191.805,199.454,193.532z      M198.729,192.303c2.58-1.527,4.275-3.688,5.088-6.479c0.836-2.809,0.559-5.395-0.838-7.751     c-1.412-2.384-3.549-3.886-6.412-4.503c-2.853-0.594-5.553-0.133-8.106,1.38c-2.526,1.495-4.246,3.649-5.147,6.466     c-0.838,2.809-0.553,5.402,0.858,7.787c1.396,2.357,3.522,3.848,6.392,4.466C193.45,194.27,196.172,193.814,198.729,192.303z" id="svg_27"/>
			<path fill="#753b16" d="M213.348,196.221l-19.436,11.5l-0.705-1.191l19.436-11.5l-2.932-4.951l1.213-0.719l6.566,11.1     l-1.213,0.718L213.348,196.221z" id="svg_28"/>
			<path fill="#753b16" d="M198.672,215.766l20.646-12.219l0.705,1.193l-20.646,12.217L198.672,215.766z" id="svg_29"/>
			<path fill="#753b16" d="M223.716,234.534c-2.92,1.728-5.989,2.22-9.209,1.478c-3.262-0.753-5.678-2.457-7.25-5.113     c-1.603-2.705-1.952-5.647-1.054-8.828c0.939-3.172,2.869-5.619,5.789-7.348s5.982-2.234,9.188-1.516     c3.262,0.752,5.688,2.469,7.271,5.15c1.572,2.656,1.902,5.595,0.992,8.813C228.545,230.354,226.635,232.807,223.716,234.534z      M222.988,233.307c2.58-1.526,4.277-3.688,5.089-6.48c0.837-2.809,0.558-5.393-0.839-7.75c-1.41-2.385-3.547-3.885-6.411-4.502     c-2.853-0.596-5.554-0.135-8.106,1.379c-2.529,1.496-4.246,3.648-5.15,6.466c-0.838,2.81-0.551,5.401,0.859,7.787     c1.396,2.356,3.525,3.847,6.391,4.465C217.711,235.271,220.434,234.816,222.988,233.307z" id="svg_30"/>
			<path fill="#753b16" d="M234.082,235.188l-17.949,10.621l-0.705-1.189l21.155-12.52l-8.786,26.819l17.988-10.644l0.705,1.189     l-21.312,12.61L234.082,235.188z" id="svg_31"/>
		</g>
		<g id="svg_32" fill="#753b16">
			<path fill="#753b16" stroke="#FFFFFF" stroke-width="2" stroke-linecap="round" stroke-linejoin="round" stroke-miterlimit="10" d="     M156.021,109.066c-1.746,1.034-3.42,1.302-5.016,0.806c-1.404-0.411-2.672-1.572-3.803-3.483l-1.278-2.16l-9.815,5.808     l-0.705-1.191l20.646-12.217l1.983,3.352c1.114,1.887,1.526,3.503,1.233,4.851C158.902,106.59,157.82,108.002,156.021,109.066z      M155.395,107.828c1.486-0.879,2.301-2.031,2.442-3.457c0.206-0.959-0.153-2.222-1.079-3.787l-1.212-2.048l-8.407,4.975     l1.3,2.197c0.882,1.489,1.948,2.399,3.202,2.732C152.893,108.773,154.145,108.569,155.395,107.828z" id="svg_33"/>
			<path fill="#753b16" stroke="#FFFFFF" stroke-width="2" stroke-linecap="round" stroke-linejoin="round" stroke-miterlimit="10" d="     M147.746,129.7l6.074-12.041l-0.312-0.62l-9.816,5.808l-0.706-1.191l20.646-12.217l1.39,2.347     c1.188,2.01,1.705,3.684,1.545,5.018c-0.215,1.838-1.313,3.342-3.295,4.514c-1.722,1.018-3.328,1.307-4.819,0.866     c-1.492-0.44-2.744-1.485-3.754-3.133l-6.113,12.064L147.746,129.7z M162.583,120.066c1.903-1.126,2.745-2.53,2.524-4.209     c0.016-0.747-0.482-1.978-1.496-3.69l-0.484-0.819l-8.447,4.998l0.926,1.564c0.881,1.489,1.867,2.382,2.957,2.676     C159.834,121.072,161.176,120.899,162.583,120.066z" id="svg_34"/>
			<path fill="#753b16" stroke="#FFFFFF" stroke-width="2" stroke-linecap="round" stroke-linejoin="round" stroke-miterlimit="10" d="     M172.195,147.463c-2.92,1.728-5.99,2.221-9.209,1.478c-3.262-0.753-5.678-2.457-7.25-5.113c-1.604-2.706-1.953-5.649-1.053-8.829     c0.938-3.172,2.866-5.62,5.787-7.348c2.92-1.727,5.981-2.233,9.188-1.514c3.26,0.752,5.685,2.469,7.271,5.15     c1.57,2.656,1.901,5.595,0.991,8.816C177.023,143.282,175.113,145.736,172.195,147.463z M171.468,146.235     c2.581-1.527,4.277-3.687,5.089-6.48c0.838-2.808,0.559-5.392-0.838-7.75c-1.41-2.384-3.548-3.884-6.412-4.501     c-2.852-0.594-5.553-0.133-8.105,1.378c-2.528,1.497-4.246,3.651-5.149,6.466c-0.838,2.809-0.551,5.404,0.86,7.788     c1.396,2.358,3.523,3.847,6.39,4.464C166.191,148.201,168.913,147.747,171.468,146.235z" id="svg_35"/>
			<path fill="#753b16" stroke="#FFFFFF" stroke-width="2" stroke-linecap="round" stroke-linejoin="round" stroke-miterlimit="10" d="     M175.199,176.811l15.662-13.593l-21.854,3.932l13.923-17.338l-19.498,7.11l-0.684-1.152l24.049-8.7l-14.646,18.168l22.976-4.09     l-19.224,16.854L175.199,176.811z" id="svg_36"/>
			<path fill="#753b16" stroke="#FFFFFF" stroke-width="2" stroke-linecap="round" stroke-linejoin="round" stroke-miterlimit="10" d="     M199.454,193.532c-2.92,1.728-5.99,2.22-9.209,1.477c-3.263-0.752-5.679-2.456-7.25-5.112c-1.603-2.707-1.952-5.648-1.054-8.83     c0.938-3.17,2.869-5.618,5.789-7.348c2.92-1.728,5.98-2.232,9.188-1.515c3.262,0.753,5.686,2.47,7.271,5.149     c1.572,2.656,1.9,5.597,0.992,8.814C204.283,189.35,202.374,191.805,199.454,193.532z M198.729,192.303     c2.58-1.527,4.275-3.688,5.088-6.479c0.836-2.809,0.559-5.395-0.838-7.751c-1.412-2.384-3.549-3.886-6.412-4.503     c-2.853-0.594-5.553-0.133-8.106,1.38c-2.526,1.495-4.246,3.649-5.147,6.466c-0.838,2.809-0.553,5.402,0.858,7.787     c1.396,2.357,3.522,3.848,6.392,4.466C193.45,194.27,196.172,193.814,198.729,192.303z" id="svg_37"/>
			<path fill="#753b16" stroke="#FFFFFF" stroke-width="2" stroke-linecap="round" stroke-linejoin="round" stroke-miterlimit="10" d="     M213.348,196.221l-19.436,11.5l-0.705-1.191l19.436-11.5l-2.932-4.951l1.213-0.719l6.566,11.1l-1.213,0.718L213.348,196.221z" id="svg_38"/>
			<path fill="#753b16" stroke="#FFFFFF" stroke-width="2" stroke-linecap="round" stroke-linejoin="round" stroke-miterlimit="10" d="     M198.672,215.766l20.646-12.219l0.705,1.193l-20.646,12.217L198.672,215.766z" id="svg_39"/>
			<path fill="#753b16" stroke="#FFFFFF" stroke-width="2" stroke-linecap="round" stroke-linejoin="round" stroke-miterlimit="10" d="     M223.716,234.534c-2.92,1.728-5.989,2.22-9.209,1.478c-3.262-0.753-5.678-2.457-7.25-5.113c-1.603-2.705-1.952-5.647-1.054-8.828     c0.939-3.172,2.869-5.619,5.789-7.348s5.982-2.234,9.188-1.516c3.262,0.752,5.688,2.469,7.271,5.15     c1.572,2.656,1.902,5.595,0.992,8.813C228.545,230.354,226.635,232.807,223.716,234.534z M222.988,233.307     c2.58-1.526,4.277-3.688,5.089-6.48c0.837-2.809,0.558-5.393-0.839-7.75c-1.41-2.385-3.547-3.885-6.411-4.502     c-2.853-0.596-5.554-0.135-8.106,1.379c-2.529,1.496-4.246,3.648-5.15,6.466c-0.838,2.81-0.551,5.401,0.859,7.787     c1.396,2.356,3.525,3.847,6.391,4.465C217.711,235.271,220.434,234.816,222.988,233.307z" id="svg_40"/>
			<path fill="#753b16" stroke="#FFFFFF" stroke-width="2" stroke-linecap="round" stroke-linejoin="round" stroke-miterlimit="10" d="     M234.082,235.188l-17.949,10.621l-0.705-1.189l21.155-12.52l-8.786,26.819l17.988-10.644l0.705,1.189l-21.312,12.61     L234.082,235.188z" id="svg_41"/>
		</g>
		<g id="svg_42" fill="#753b16">
			<path fill="#753b16" d="M156.021,109.066c-1.746,1.034-3.42,1.302-5.016,0.806c-1.404-0.411-2.672-1.572-3.803-3.483l-1.278-2.16     l-9.815,5.808l-0.705-1.191l20.646-12.217l1.983,3.352c1.114,1.887,1.526,3.503,1.233,4.851     C158.902,106.59,157.82,108.002,156.021,109.066z M155.395,107.828c1.486-0.879,2.301-2.031,2.442-3.457     c0.206-0.959-0.153-2.222-1.079-3.787l-1.212-2.048l-8.407,4.975l1.3,2.197c0.882,1.489,1.948,2.399,3.202,2.732     C152.893,108.773,154.145,108.569,155.395,107.828z" id="svg_43"/>
			<path fill="#753b16" d="M147.746,129.7l6.074-12.041l-0.312-0.62l-9.816,5.808l-0.706-1.191l20.646-12.217l1.39,2.347     c1.188,2.01,1.705,3.684,1.545,5.018c-0.215,1.838-1.313,3.342-3.295,4.514c-1.722,1.018-3.328,1.307-4.819,0.866     c-1.492-0.44-2.744-1.485-3.754-3.133l-6.113,12.064L147.746,129.7z M162.583,120.066c1.903-1.126,2.745-2.53,2.524-4.209     c0.016-0.747-0.482-1.978-1.496-3.69l-0.484-0.819l-8.447,4.998l0.926,1.564c0.881,1.489,1.867,2.382,2.957,2.676     C159.834,121.072,161.176,120.899,162.583,120.066z" id="svg_44"/>
			<path fill="#753b16" d="M172.195,147.463c-2.92,1.728-5.99,2.221-9.209,1.478c-3.262-0.753-5.678-2.457-7.25-5.113     c-1.604-2.706-1.953-5.649-1.053-8.829c0.938-3.172,2.866-5.62,5.787-7.348c2.92-1.727,5.981-2.233,9.188-1.514     c3.26,0.752,5.685,2.469,7.271,5.15c1.57,2.656,1.901,5.595,0.991,8.816C177.023,143.282,175.113,145.736,172.195,147.463z      M171.468,146.235c2.581-1.527,4.277-3.687,5.089-6.48c0.838-2.808,0.559-5.392-0.838-7.75c-1.41-2.384-3.548-3.884-6.412-4.501     c-2.852-0.594-5.553-0.133-8.105,1.378c-2.528,1.497-4.246,3.651-5.149,6.466c-0.838,2.809-0.551,5.404,0.86,7.788     c1.396,2.358,3.523,3.847,6.39,4.464C166.191,148.201,168.913,147.747,171.468,146.235z" id="svg_45"/>
			<path fill="#753b16" d="M175.199,176.811l15.662-13.593l-21.854,3.932l13.923-17.338l-19.498,7.11l-0.684-1.152l24.049-8.7     l-14.646,18.168l22.976-4.09l-19.224,16.854L175.199,176.811z" id="svg_46"/>
			<path fill="#753b16" d="M199.454,193.532c-2.92,1.728-5.99,2.22-9.209,1.477c-3.263-0.752-5.679-2.456-7.25-5.112     c-1.603-2.707-1.952-5.648-1.054-8.83c0.938-3.17,2.869-5.618,5.789-7.348c2.92-1.728,5.98-2.232,9.188-1.515     c3.262,0.753,5.686,2.47,7.271,5.149c1.572,2.656,1.9,5.597,0.992,8.814C204.283,189.35,202.374,191.805,199.454,193.532z      M198.729,192.303c2.58-1.527,4.275-3.688,5.088-6.479c0.836-2.809,0.559-5.395-0.838-7.751     c-1.412-2.384-3.549-3.886-6.412-4.503c-2.853-0.594-5.553-0.133-8.106,1.38c-2.526,1.495-4.246,3.649-5.147,6.466     c-0.838,2.809-0.553,5.402,0.858,7.787c1.396,2.357,3.522,3.848,6.392,4.466C193.45,194.27,196.172,193.814,198.729,192.303z" id="svg_47"/>
			<path fill="#753b16" d="M213.348,196.221l-19.436,11.5l-0.705-1.191l19.436-11.5l-2.932-4.951l1.213-0.719l6.566,11.1     l-1.213,0.718L213.348,196.221z" id="svg_48"/>
			<path fill="#753b16" d="M198.672,215.766l20.646-12.219l0.705,1.193l-20.646,12.217L198.672,215.766z" id="svg_49"/>
			<path fill="#753b16" d="M223.716,234.534c-2.92,1.728-5.989,2.22-9.209,1.478c-3.262-0.753-5.678-2.457-7.25-5.113     c-1.603-2.705-1.952-5.647-1.054-8.828c0.939-3.172,2.869-5.619,5.789-7.348s5.982-2.234,9.188-1.516     c3.262,0.752,5.688,2.469,7.271,5.15c1.572,2.656,1.902,5.595,0.992,8.813C228.545,230.354,226.635,232.807,223.716,234.534z      M222.988,233.307c2.58-1.526,4.277-3.688,5.089-6.48c0.837-2.809,0.558-5.393-0.839-7.75c-1.41-2.385-3.547-3.885-6.411-4.502     c-2.853-0.596-5.554-0.135-8.106,1.379c-2.529,1.496-4.246,3.648-5.15,6.466c-0.838,2.81-0.551,5.401,0.859,7.787     c1.396,2.356,3.525,3.847,6.391,4.465C217.711,235.271,220.434,234.816,222.988,233.307z" id="svg_50"/>
			<path fill="#753b16" d="M234.082,235.188l-17.949,10.621l-0.705-1.189l21.155-12.52l-8.786,26.819l17.988-10.644l0.705,1.189     l-21.312,12.61L234.082,235.188z" id="svg_51"/>
		</g>
	</g>
</g></g></svg>