<?xml version="1.0" encoding="utf-8"?>
<!-- Generator: Adobe Illustrator 16.0.0, SVG Export Plug-In . SVG Version: 6.00 Build 0)  -->
<!DOCTYPE svg PUBLIC "-//W3C//DTD SVG 1.1//EN" "http://www.w3.org/Graphics/SVG/1.1/DTD/svg11.dtd">
<svg version="1.1" id="Layer_1" xmlns="http://www.w3.org/2000/svg" xmlns:xlink="http://www.w3.org/1999/xlink" x="0px" y="0px"
	 width="300px" height="343px" viewBox="0 0 300 343" enable-background="new 0 0 300 343" xml:space="preserve">
<g>
	<g id="XMLID_1558_">
		<polygon id="XMLID_1456_" fill="#1D5F30" points="248.54,3.918 240.706,11.753 233.227,4.272 225.805,11.692 218.184,4.073 
			210.927,11.326 203.3,3.7 195.825,11.177 189.146,4.498 182.109,11.536 174.753,4.179 167.096,11.836 159.784,4.521 
			152.542,11.765 152.542,11.216 145.245,3.918 137.411,11.753 129.931,4.272 122.509,11.692 114.888,4.073 107.631,11.326 
			100.005,3.7 92.531,11.177 85.854,4.498 78.817,11.536 71.46,4.179 63.802,11.836 56.489,4.521 49.249,11.765 49.249,13.725 
			49.249,14.799 49.249,249.92 152.542,302.699 255.837,249.92 255.837,14.799 255.837,13.725 255.837,11.216 		"/>
		<polygon id="XMLID_1501_" fill="#ED1C24" stroke="#FFFFFF" stroke-width="3" stroke-miterlimit="10" points="60.779,25.699 
			60.779,238.33 152.542,286.176 243.393,237.506 243.393,27.002 		"/>
	</g>
	<g>
		<g>
			<path fill="#ED1C24" d="M80.199,110.912v41.285H73.56V94.212l39.833,42.944V96.908h6.639v56.949L80.199,110.912z"/>
			<path fill="#ED1C24" d="M129.368,151.575v-54.77h28.63v6.224H136.11v15.353h21.265v6.224H136.11v20.747h21.888v6.224h-28.63
				V151.575z"/>
			<path fill="#ED1C24" d="M212.354,153.754l-15.041-40.248l-14.834,40.248l-22.199-56.846h7.158l15.041,39.004l14.834-40.248
				l15.041,40.248l14.834-39.004h7.156L212.354,153.754z"/>
		</g>
		<g>
			<path fill="none" stroke="#FFFFFF" stroke-width="2" stroke-linecap="round" stroke-linejoin="round" stroke-miterlimit="10" d="
				M80.199,110.912v41.285H73.56V94.212l39.833,42.944V96.908h6.639v56.949L80.199,110.912z"/>
			<path fill="none" stroke="#FFFFFF" stroke-width="2" stroke-linecap="round" stroke-linejoin="round" stroke-miterlimit="10" d="
				M129.368,151.575v-54.77h28.63v6.224H136.11v15.353h21.265v6.224H136.11v20.747h21.888v6.224h-28.63V151.575z"/>
			<path fill="none" stroke="#FFFFFF" stroke-width="2" stroke-linecap="round" stroke-linejoin="round" stroke-miterlimit="10" d="
				M212.354,153.754l-15.041-40.248l-14.834,40.248l-22.199-56.846h7.158l15.041,39.004l14.834-40.248l15.041,40.248l14.834-39.004
				h7.156L212.354,153.754z"/>
		</g>
		<g>
			<path fill="#FFFFFF" d="M80.199,110.912v41.285H73.56V94.212l39.833,42.944V96.908h6.639v56.949L80.199,110.912z"/>
			<path fill="#FFFFFF" d="M129.368,151.575v-54.77h28.63v6.224H136.11v15.353h21.265v6.224H136.11v20.747h21.888v6.224h-28.63
				V151.575z"/>
			<path fill="#FFFFFF" d="M212.354,153.754l-15.041-40.248l-14.834,40.248l-22.199-56.846h7.158l15.041,39.004l14.834-40.248
				l15.041,40.248l14.834-39.004h7.156L212.354,153.754z"/>
		</g>
	</g>
	<g>
		<g>
			<path fill="#ED1C24" d="M121.666,202.048l-5.142-26.849l-10.704,27.387l-10.823-27.387l-5.262,26.849h-1.854l6.578-33.067
				l11.301,28.762l11.302-28.762l6.518,33.067H121.666z"/>
			<path fill="#ED1C24" d="M129.739,201.568v-31.571h14.65v1.854h-12.737v11.542h12.378v1.854h-12.378v14.528h12.737v1.795h-14.65
				V201.568z"/>
			<path fill="#ED1C24" d="M154.732,174.48v27.445h-1.912v-32.35l25.712,27.925v-27.506h1.913v32.589L154.732,174.48z"/>
			<path fill="#ED1C24" d="M209.984,192.359c-0.039,0.759-0.102,1.377-0.18,1.854c-0.318,1.596-0.938,2.932-1.854,4.008
				c-2.072,2.512-4.843,3.768-8.312,3.768c-3.47,0-6.261-1.256-8.371-3.768c-0.918-1.156-1.518-2.492-1.795-4.008
				c-0.16-0.798-0.238-2.312-0.238-4.545v-19.673h1.912v19.073c0,3.908,0.56,6.56,1.676,7.953c1.634,2.113,3.906,3.17,6.816,3.17
				c2.948,0,5.239-1.057,6.877-3.17c1.074-1.396,1.612-4.045,1.612-7.953v-19.073h1.914v19.673
				C210.045,190.707,210.023,191.604,209.984,192.359z"/>
		</g>
		<g>
			<path fill="none" stroke="#FFFFFF" stroke-width="2" stroke-linecap="round" stroke-linejoin="round" stroke-miterlimit="10" d="
				M121.666,202.048l-5.142-26.849l-10.704,27.387l-10.823-27.387l-5.262,26.849h-1.854l6.578-33.067l11.301,28.762l11.302-28.762
				l6.518,33.067H121.666z"/>
			<path fill="none" stroke="#FFFFFF" stroke-width="2" stroke-linecap="round" stroke-linejoin="round" stroke-miterlimit="10" d="
				M129.739,201.568v-31.571h14.65v1.854h-12.737v11.542h12.378v1.854h-12.378v14.528h12.737v1.795h-14.65V201.568z"/>
			<path fill="none" stroke="#FFFFFF" stroke-width="2" stroke-linecap="round" stroke-linejoin="round" stroke-miterlimit="10" d="
				M154.732,174.48v27.445h-1.912v-32.35l25.712,27.925v-27.506h1.913v32.589L154.732,174.48z"/>
			<path fill="none" stroke="#FFFFFF" stroke-width="2" stroke-linecap="round" stroke-linejoin="round" stroke-miterlimit="10" d="
				M209.984,192.359c-0.039,0.759-0.102,1.377-0.18,1.854c-0.318,1.596-0.938,2.932-1.854,4.008
				c-2.072,2.512-4.843,3.768-8.312,3.768c-3.47,0-6.261-1.256-8.371-3.768c-0.918-1.156-1.518-2.492-1.795-4.008
				c-0.16-0.798-0.238-2.312-0.238-4.545v-19.673h1.912v19.073c0,3.908,0.56,6.56,1.676,7.953c1.634,2.113,3.906,3.17,6.816,3.17
				c2.948,0,5.239-1.057,6.877-3.17c1.074-1.396,1.612-4.045,1.612-7.953v-19.073h1.914v19.673
				C210.045,190.707,210.023,191.604,209.984,192.359z"/>
		</g>
		<g>
			<path fill="#FFFFFF" d="M121.666,202.048l-5.142-26.849l-10.704,27.387l-10.823-27.387l-5.262,26.849h-1.854l6.578-33.067
				l11.301,28.762l11.302-28.762l6.518,33.067H121.666z"/>
			<path fill="#FFFFFF" d="M129.739,201.568v-31.571h14.65v1.854h-12.737v11.542h12.378v1.854h-12.378v14.528h12.737v1.795h-14.65
				V201.568z"/>
			<path fill="#FFFFFF" d="M154.732,174.48v27.445h-1.912v-32.35l25.712,27.925v-27.506h1.913v32.589L154.732,174.48z"/>
			<path fill="#FFFFFF" d="M209.984,192.359c-0.039,0.759-0.102,1.377-0.18,1.854c-0.318,1.596-0.938,2.932-1.854,4.008
				c-2.072,2.512-4.843,3.768-8.312,3.768c-3.47,0-6.261-1.256-8.371-3.768c-0.918-1.156-1.518-2.492-1.795-4.008
				c-0.16-0.798-0.238-2.312-0.238-4.545v-19.673h1.912v19.073c0,3.908,0.56,6.56,1.676,7.953c1.634,2.113,3.906,3.17,6.816,3.17
				c2.948,0,5.239-1.057,6.877-3.17c1.074-1.396,1.612-4.045,1.612-7.953v-19.073h1.914v19.673
				C210.045,190.707,210.023,191.604,209.984,192.359z"/>
		</g>
	</g>
</g>
</svg>
