<?xml version="1.0" encoding="utf-8"?>
<!-- Generator: Adobe Illustrator 16.0.0, SVG Export Plug-In . SVG Version: 6.00 Build 0)  -->
<!DOCTYPE svg PUBLIC "-//W3C//DTD SVG 1.1//EN" "http://www.w3.org/Graphics/SVG/1.1/DTD/svg11.dtd">
<svg version="1.1" id="Layer_1" xmlns="http://www.w3.org/2000/svg" xmlns:xlink="http://www.w3.org/1999/xlink" x="0px" y="0px"
	 width="841.889px" height="595.281px" viewBox="0 0 841.889 595.281" enable-background="new 0 0 841.889 595.281"
	 xml:space="preserve">
<path fill="#EA242A" d="M399.569,11.927c3.363-8.408,11.771-13.453,20.179-13.453c8.409,0,16.816,5.045,21.861,13.453
	l77.353,158.068c3.363,6.727,10.09,11.771,18.498,13.453l173.203,25.224c8.408,1.682,16.815,8.408,20.179,16.815
	c3.363,8.408,0,18.498-6.727,25.224L597.996,373.468c-5.045,5.045-8.408,13.453-6.727,21.86l30.269,173.203
	c1.682,8.408-1.682,18.498-10.09,23.543c-6.726,5.044-16.815,6.726-25.224,1.681L431.52,511.357c-6.727-3.363-15.135-3.363-21.861,0
	l-154.706,82.397c-8.408,5.045-18.497,3.363-25.224-1.681c-6.727-5.045-11.771-15.135-10.09-23.543l30.269-173.203
	c1.682-8.407-1.682-15.134-6.727-21.86L117.063,250.712c-6.727-6.726-8.408-16.815-6.727-25.224
	c3.363-8.407,10.09-15.134,20.179-16.815l173.203-25.224c8.408-1.682,15.135-6.727,18.498-13.453L399.569,11.927z"/>
<g>
	<g>
		<defs>
			<rect id="SVGID_1_" x="425.149" y="-151.342" width="465.798" height="849.199"/>
		</defs>
		<clipPath id="SVGID_2_">
			<use xlink:href="#SVGID_1_"  overflow="visible"/>
		</clipPath>
		<path clip-path="url(#SVGID_2_)" fill="#BA202A" d="M399.925,13.453C403.288,5.045,411.697,0,420.104,0
			c8.408,0,16.815,5.045,21.86,13.453l77.353,158.068c3.363,6.727,10.09,11.771,18.498,13.453l173.203,25.224
			c8.408,1.682,16.815,8.408,20.179,16.815c3.363,8.408,0,18.498-6.727,25.224L598.352,374.993
			c-5.045,5.045-8.408,13.453-6.727,21.86l30.269,173.203c1.682,8.408-1.682,18.498-10.09,23.543
			c-6.726,5.044-16.815,6.726-25.224,1.681l-154.705-82.397c-6.727-3.363-15.135-3.363-21.86,0L255.309,595.28
			c-8.408,5.045-18.497,3.363-25.224-1.681c-6.727-5.045-11.771-15.135-10.09-23.543l30.269-173.203
			c1.682-8.407-1.682-15.134-6.727-21.86L117.419,252.237c-6.727-6.726-8.408-16.815-6.727-25.224
			c3.363-8.407,10.09-15.134,20.179-16.815l173.203-25.224c8.408-1.682,15.135-6.727,18.498-13.453L399.925,13.453z"/>
	</g>
</g>
</svg>
