<?xml version="1.0" encoding="utf-8"?>
<!-- Generator: Adobe Illustrator 16.0.0, SVG Export Plug-In . SVG Version: 6.00 Build 0)  -->
<!DOCTYPE svg PUBLIC "-//W3C//DTD SVG 1.1//EN" "http://www.w3.org/Graphics/SVG/1.1/DTD/svg11.dtd">
<svg version="1.1" id="Layer_1" xmlns="http://www.w3.org/2000/svg" xmlns:xlink="http://www.w3.org/1999/xlink" x="0px" y="0px"
	 width="300px" height="300px" viewBox="0 0 300 300" enable-background="new 0 0 300 300" xml:space="preserve">
<g>
	<g>
		<path fill="#999A9B" d="M210.844,39.362c-1.242-0.764-2.143-1.317-2.695-1.737c-2.988-2.271-7.219-3.499-9.682-3.499
			c-0.517,0-0.802,0.055-0.928,0.088c-0.549,0.146-1.195,0.223-1.92,0.223c-3.262,0-8.473-1.538-12.773-4.974
			c-0.464-0.367-0.772-0.408-0.968-0.408c-0.983,0-2.438,1.2-3.726,2.262c-1.823,1.498-3.892,3.202-6.354,3.202
			c-0.67,0-1.33-0.131-1.963-0.381c-1.192-0.479-2.092-0.96-2.812-1.35c-1.188-0.642-1.785-0.963-3-0.963
			c-1.256,0-3.106,0.358-5.819,1.132c-22.468,6.373-28.45,26.329-29.749,32.296c-1.847,8.48-0.537,14.859,1.71,16.775
			c7.157,6.096,20.317,9.316,38.058,9.316c29.907,0,58.771-8.572,61.235-12.071c3.731-5.297,5.087-10.591,4.026-15.734
			C231.07,51.795,216.896,43.082,210.844,39.362z M161.991,39.343c-0.062,0.062-6.191,6.058-8.927,13.05
			c-0.312,0.793-1.069,1.278-1.873,1.278c-0.243,0-0.491-0.044-0.729-0.141c-1.034-0.403-1.545-1.568-1.141-2.604
			c3.064-7.825,9.601-14.202,9.876-14.475c0.798-0.767,2.066-0.749,2.839,0.051C162.809,37.301,162.786,38.571,161.991,39.343z
			 M184.927,49.956c-0.094,1.046-0.97,1.837-2.002,1.837c-0.057,0-0.116-0.004-0.174-0.007c-1.104-0.094-1.925-1.066-1.83-2.175
			c0.515-6.021-2-9.938-2.022-9.975c-0.604-0.926-0.354-2.17,0.567-2.78c0.925-0.609,2.158-0.366,2.775,0.551
			C182.375,37.608,185.562,42.46,184.927,49.956z M204.184,54.919c-0.035,0-0.074,0.002-0.108,0.002
			c-1.062,0-1.943-0.829-2.005-1.897c-0.493-8.944-4.055-10.763-4.09-10.78c-1.03-0.414-1.5-1.567-1.09-2.601
			c0.412-1.026,1.611-1.517,2.643-1.104c0.604,0.24,5.91,2.687,6.548,14.261C206.143,53.907,205.294,54.857,204.184,54.919z"/>
		<g>
			<polygon fill="#ED1C24" points="270.832,37.553 123.571,5.623 4.191,66.385 4.431,80.92 10.149,86.164 11.815,72.82 
				125.716,13.963 263.206,44.701 270.832,47.323 			"/>
			<rect x="120.475" y="12.771" fill="#ED1C24" width="8.34" height="97.458"/>
		</g>
		<g>
			<path fill="#196232" d="M79.753,48.475c-0.529,2.83-1.399,4.592-5.016,6.329c-2.701,1.285-5.799,1.969-7.918,2.888
				c-3.439,1.498-5.35,4.002-3.312,10.214c1.184,3.602,6.044,6.933,9.896,5.49c3.865-1.443,6.35-3.244,9.83-4.293
				c3.48-1.042,9.169,1.556,8.873,6.03c-0.289,4.483-2.328,9.384-2.092,11.131c0.229,1.745,2.072,6.179,6.143,5.505
				c4.063-0.67,8.056-5.42,9.721-8.953c1.672-3.538,4.691-8.073,8.938-9.329c4.263-1.254,12.768-3.385,15.042-5.569
				c2.29-2.188,2.14-7.726-1.201-9.601c-3.343-1.874-5.451,0.129-7.727-2.268c-2.092-2.187,0.078-5.541-1.273-9.498
				c-1.547-4.543-7.885-5.173-11.219-2.095c-2.303,2.132-5.668,3.397-8.014,2.999c-3.124-0.548-4.062-1.702-6.013-4.058
				c-2.297-2.77-5.49-4.373-9.868-2.316C82.821,41.895,80.44,44.688,79.753,48.475z"/>
			<path fill="#FFFFFF" d="M72.192,77.179c0,0-6.498-3.679-4.279-9.304c1.354-3.431,8.025-10.71,11.389-12.876
				c5.942-3.825,12.32-5.515,20.689-5.301c6.992,0.173,13.721,5.537,15.902,7.049c2.164,1.506,16.194,5.74,8.172,18.876
				L95.673,96.638L72.192,77.179z"/>
			<path fill="#196232" d="M91.69,64.646c-0.938,1.526,0.088,3.889,2.25,5.202c2.168,1.312,6.271,2.004,7.4,0.619
				c1.133-1.386,3.215-4.345,1.242-5.665c-1.98-1.312-1.992-2.286-4.512-1.847C95.546,63.399,93.761,61.302,91.69,64.646z"/>
			<path fill="#00A651" d="M129.858,67.917c-1.291,1.233-4.56,2.451-7.943,3.501c-2.593,0.814-7.354,2.011-8.831,2.884
				c-1.471,0.872-3.472,2.207-6.548,5.713c-2.846,3.24-6.783,4.357-9.125,3.762c-3.582-0.918-4.653-4.203-5.305-8.644
				c-0.72-4.943-6.558-7.416-9.979-6.2c-2.898,1.037-4.877,3.796-8.725,4.463c-4.047,0.707-7.863-1.646-9.896-5.49
				c0,0,2.86,12.835,3.974,19.423c1.113,6.582,2.446,13.944,2.671,15.689c0.229,1.741,1.076,4.835,3.056,6.544
				c1.982,1.706,5.531,3.959,10.439,6.191c4.899,2.229,12.321,3.432,16.006,3.158c3.689-0.273,10.669-0.812,13.914-3.795
				c3.241-2.985,6.278-6.552,7.786-8.913c1.51-2.364,2.827-3.757,3.577-5.324c0.741-1.573,1.688-2.953,1.99-7.043
				c0.307-4.095,0.732-11.097,1.787-16.37c0.869-4.353,1.979-9.627,2.346-11.335C130.827,66.771,130.42,67.377,129.858,67.917z"/>
		</g>
		<g>
			<path fill="#196232" d="M129.593,64.88c-0.531,2.827-1.398,4.591-5.018,6.324c-2.701,1.29-5.794,1.974-7.915,2.89
				c-3.442,1.499-5.354,4.004-3.312,10.213c1.184,3.604,6.044,6.934,9.899,5.491c3.861-1.445,6.346-3.243,9.827-4.292
				c3.478-1.04,9.167,1.559,8.869,6.033c-0.283,4.479-2.323,9.383-2.085,11.128c0.224,1.743,2.069,6.177,6.139,5.506
				c4.062-0.67,8.056-5.421,9.72-8.956c1.676-3.532,4.694-8.072,8.942-9.33c4.258-1.25,12.764-3.381,15.042-5.563
				c2.285-2.188,2.14-7.728-1.2-9.603c-3.343-1.872-5.45,0.128-7.731-2.27c-2.086-2.186,0.08-5.537-1.269-9.495
				c-1.552-4.545-7.888-5.176-11.224-2.097c-2.307,2.131-5.668,3.396-8.01,3c-3.128-0.551-4.064-1.703-6.019-4.058
				c-2.291-2.77-5.484-4.373-9.865-2.317C132.659,58.297,130.285,61.092,129.593,64.88z"/>
			<path fill="#FFFFFF" d="M122.036,93.583c0,0-6.498-3.683-4.279-9.305c1.35-3.432,8.023-10.714,11.383-12.875
				c5.945-3.823,12.324-5.516,20.691-5.305c6.989,0.174,13.728,5.54,15.899,7.05c2.172,1.508,16.199,5.743,8.174,18.877
				l-28.389,21.018L122.036,93.583z"/>
			<path fill="#196232" d="M141.533,81.05c-0.937,1.527,0.088,3.888,2.247,5.198c2.166,1.319,6.268,2.006,7.402,0.623
				c1.137-1.386,3.215-4.341,1.244-5.665c-1.981-1.314-1.994-2.288-4.518-1.845C145.387,79.803,143.603,77.702,141.533,81.05z"/>
			<path fill="#00A651" d="M179.701,84.322c-1.292,1.229-4.562,2.449-7.946,3.501c-2.592,0.812-7.351,2.007-8.832,2.881
				c-1.469,0.871-3.47,2.21-6.544,5.712c-2.852,3.239-6.784,4.357-9.13,3.763c-3.578-0.918-4.655-4.198-5.306-8.64
				c-0.718-4.944-6.552-7.421-9.973-6.199c-2.898,1.03-4.881,3.793-8.724,4.458c-4.053,0.705-7.868-1.646-9.899-5.491
				c0,0,2.858,12.835,3.973,19.426c1.113,6.579,2.446,13.942,2.674,15.688c0.225,1.741,1.072,4.838,3.055,6.545
				c1.981,1.705,5.528,3.961,10.438,6.191c4.902,2.229,12.324,3.43,16.01,3.162c3.687-0.277,10.665-0.816,13.905-3.803
				c3.244-2.98,6.283-6.55,7.791-8.91c1.509-2.364,2.832-3.759,3.576-5.325c0.742-1.57,1.688-2.949,1.992-7.042
				c0.307-4.091,0.732-11.095,1.783-16.371c0.868-4.349,1.982-9.628,2.348-11.335C180.667,83.173,180.264,83.778,179.701,84.322z"/>
		</g>
		<polygon fill="#ED1C24" points="155.302,93.213 4.225,66.746 3,189.98 155.302,213.141 		"/>
		<polygon fill="#ED1C24" points="161.46,91.63 270.832,42.833 270.832,164 161.46,211.973 		"/>
	</g>
	<g>
		<path d="M286.864,109.479c0.469,0.969-0.968,2.632-3.205,3.714L32.336,234.865c-2.235,1.084-4.431,1.178-4.897,0.211l-1.743-3.6
			c-0.47-0.969,0.966-2.631,3.202-3.713L280.223,106.09c2.235-1.082,4.43-1.176,4.897-0.21L286.864,109.479z"/>
		<path d="M297.923,131.055c0.441,0.979-1.057,2.559-3.347,3.527L37.282,243.504c-2.289,0.969-4.507,0.963-4.949-0.018l-1.646-3.646
			c-0.442-0.979,1.055-2.557,3.347-3.525l257.294-108.92c2.288-0.969,4.506-0.963,4.947,0.016L297.923,131.055z"/>
	</g>
</g>
</svg>
