<?xml version="1.0" encoding="utf-8"?>
<!-- Generator: Adobe Illustrator 19.1.0, SVG Export Plug-In . SVG Version: 6.00 Build 0)  -->
<svg version="1.1" id="Layer_1" xmlns="http://www.w3.org/2000/svg" xmlns:xlink="http://www.w3.org/1999/xlink" x="0px" y="0px"
	 viewBox="0 0 85.1 74.7" style="enable-background:new 0 0 85.1 74.7;" xml:space="preserve">
<style type="text/css">
	.st0{fill:#ED2024;}
	.st1{fill:#FFFFFF;}
</style>
<polygon class="st0" points="0,0 85.1,0 85.1,74.7 "/>
<g>
	<path class="st1" d="M51.6,21.9l-4.5-4.5l-4,4L42,20.2l8.7-8.7l1.1,1.1l-3.7,3.7l4.5,4.5l3.7-3.7l1.1,1.1L48.8,27l-1.1-1.1
		L51.6,21.9z"/>
	<path class="st1" d="M62.7,32.1c-0.6,0.6-1.3,1.1-2.1,1.5c-0.7,0.4-1.5,0.6-2.3,0.6c-0.8,0.1-1.5,0-2.3-0.3c-0.7-0.3-1.4-0.7-2-1.3
		c-0.6-0.6-1.1-1.3-1.3-2.1c-0.3-0.7-0.4-1.5-0.3-2.3c0.1-0.8,0.3-1.5,0.6-2.3c0.4-0.7,0.9-1.4,1.5-2.1s1.3-1.1,2.1-1.5
		c0.7-0.4,1.5-0.6,2.3-0.6c0.8-0.1,1.5,0.1,2.3,0.3c0.7,0.3,1.4,0.7,2,1.3c0.6,0.6,1,1.3,1.3,2c0.3,0.7,0.4,1.5,0.3,2.3
		c-0.1,0.8-0.3,1.5-0.6,2.3S63.3,31.5,62.7,32.1z M61.6,31.1c0.5-0.5,0.9-1,1.2-1.6s0.5-1.2,0.5-1.7c0.1-0.6,0-1.1-0.2-1.7
		c-0.2-0.6-0.5-1.1-0.9-1.5c-0.5-0.5-1-0.8-1.5-1c-0.6-0.2-1.1-0.2-1.7-0.2s-1.2,0.3-1.7,0.6c-0.6,0.3-1.1,0.7-1.6,1.2
		s-0.9,1-1.2,1.6c-0.3,0.6-0.5,1.1-0.5,1.7c-0.1,0.6,0,1.1,0.2,1.7c0.2,0.6,0.5,1.1,1,1.5c0.5,0.5,1,0.8,1.5,1
		c0.6,0.2,1.1,0.2,1.7,0.2s1.2-0.2,1.7-0.5C60.5,32,61.1,31.6,61.6,31.1z"/>
	<path class="st1" d="M62.7,40.9l-1.1-1.1l7.7-7.7l-2.8-2.8l1-1l6.8,6.8l-1,1l-2.8-2.8L62.7,40.9z"/>
</g>
<g>
</g>
<g>
</g>
<g>
</g>
<g>
</g>
<g>
</g>
<g>
</g>
</svg>
