<?xml version="1.0" encoding="utf-8"?>
<!-- Generator: Adobe Illustrator 19.1.0, SVG Export Plug-In . SVG Version: 6.00 Build 0)  -->
<svg version="1.1" id="Layer_1" xmlns="http://www.w3.org/2000/svg" xmlns:xlink="http://www.w3.org/1999/xlink" x="0px" y="0px"
	 viewBox="0 0 85.1 74.7" style="enable-background:new 0 0 85.1 74.7;" xml:space="preserve">
<style type="text/css">
	.st0{fill:#ED2024;}
	.st1{fill:#FFFFFF;}
</style>
<polygon class="st0" points="0,0 85.1,0 85.1,74.7 "/>
<g>
	<path class="st1" d="M42.6,22.1c-0.6,0.2-1.1,0.2-1.7,0.1c-0.5-0.1-1.1-0.3-1.6-0.6c-0.5-0.3-0.9-0.7-1.3-1c-0.4-0.4-0.7-0.8-1-1.3
		c-0.3-0.5-0.5-1-0.6-1.5c-0.1-0.5-0.1-1.1,0.1-1.7c0.2-0.6,0.5-1.1,1.1-1.7l3.4-3.4c0.2-0.2,0.4-0.4,0.7-0.4
		c0.2-0.1,0.5-0.1,0.7-0.1c0.2,0,0.5,0.1,0.7,0.1c0.2,0.1,0.5,0.1,0.7,0.2c0.2,0.1,0.4,0.1,0.5,0.1c0.2,0,0.3,0,0.4-0.1
		c0.3-0.3,0.2-0.7-0.3-1.2l-1.2-1.2l1.2-1.2l1.2,1.2c0.7,0.7,1.1,1.3,1.2,1.9c0.1,0.6-0.1,1.1-0.6,1.6c-0.2,0.2-0.5,0.4-0.7,0.5
		c-0.3,0.1-0.5,0.1-0.7,0.1c-0.2,0-0.5-0.1-0.7-0.1c-0.2-0.1-0.5-0.1-0.7-0.2c-0.2,0-0.4-0.1-0.6,0c-0.2,0-0.4,0.1-0.5,0.3l-3,3
		c-0.4,0.4-0.6,0.7-0.7,1s-0.2,0.7-0.1,1c0,0.3,0.2,0.6,0.3,0.9c0.2,0.3,0.4,0.6,0.7,0.9c0.3,0.3,0.6,0.5,0.9,0.7
		c0.3,0.2,0.6,0.3,0.9,0.3c0.3,0,0.7,0,1-0.1c0.3-0.1,0.7-0.4,1-0.7l6.8-6.7l1.4,1.3L44.3,21C43.7,21.6,43.2,21.9,42.6,22.1z"/>
	<path class="st1" d="M52.4,20.1c0.3-0.3,0.4-0.6,0.5-0.9s0-0.7-0.2-1c-0.2-0.3-0.4-0.7-0.7-1s-0.7-0.7-1.1-1L52,15
		c0.6,0.4,1.1,0.9,1.6,1.4c0.5,0.5,0.8,1,1,1.6c0.2,0.5,0.3,1.1,0.2,1.6c-0.1,0.5-0.4,1.1-0.8,1.6l-7.5,7.5l-1.3-1.3L52.4,20.1z"/>
	<path class="st1" d="M50,32c-0.4-0.6-0.7-1.2-0.8-1.8c-0.1-0.6-0.1-1.2,0.1-1.7c0.2-0.6,0.6-1.1,1.1-1.7c0.4-0.4,0.8-0.6,1.2-0.8
		c0.4-0.2,0.8-0.2,1.2-0.3c0.4,0,0.7,0,1.1,0.1c0.3,0.1,0.6,0.2,0.8,0.3c-0.1-0.2-0.2-0.4-0.3-0.6c-0.1-0.3-0.1-0.6-0.1-0.9
		c0-0.3,0.1-0.6,0.2-1c0.1-0.3,0.4-0.7,0.7-1c0.5-0.5,1.1-0.8,1.8-0.9c0.7-0.1,1.4,0.1,2.1,0.4c0.2,0.1,0.4,0.2,0.6,0.4
		c0.2,0.2,0.4,0.3,0.7,0.5c0.2,0.2,0.4,0.4,0.6,0.6c0.2,0.2,0.4,0.4,0.5,0.7l-1.2,1.2c-0.3-0.4-0.6-0.8-0.9-1.1
		c-0.3-0.3-0.7-0.6-1-0.7c-0.3-0.2-0.7-0.2-1-0.2c-0.3,0-0.6,0.2-0.9,0.4c-0.3,0.3-0.4,0.5-0.4,0.8c0,0.3,0,0.6,0.1,0.9
		c0.1,0.3,0.3,0.6,0.5,0.9c0.2,0.3,0.5,0.6,0.7,0.8l1.1,1.1l-1.2,1.2l-0.8-0.8c-0.9-0.9-1.7-1.4-2.5-1.4c-0.8-0.1-1.4,0.2-2,0.7
		c-0.4,0.4-0.6,0.8-0.7,1.2c-0.1,0.4-0.1,0.8,0.1,1.2c0.1,0.4,0.3,0.8,0.7,1.2c0.3,0.4,0.7,0.8,1.1,1.2l2.7,2.6l8.4-8.4l1.3,1.4
		L56,38.1l-4.4-4.2C51,33.3,50.4,32.7,50,32z"/>
	<path class="st1" d="M70.8,39.9c0.4-0.4,0.6-0.8,0.7-1.2c0.1-0.4,0.1-0.8,0-1.2c-0.1-0.4-0.3-0.8-0.5-1.2c-0.3-0.4-0.6-0.8-1-1.2
		c-0.4-0.4-0.8-0.7-1.2-1c-0.4-0.3-0.8-0.4-1.2-0.5c-0.4-0.1-0.8-0.1-1.2,0s-0.8,0.4-1.2,0.7l-3.1,3.1c-0.2,0.2-0.5,0.5-0.7,0.7
		c-0.2,0.2-0.4,0.4-0.6,0.5l-0.6,0.5l0,0c0.1,0,0.2-0.1,0.3-0.1s0.2-0.1,0.3-0.1c0.2-0.1,0.3-0.1,0.5-0.2c0.2-0.1,0.4-0.1,0.6-0.1
		l4.9-0.8l-1.2-1.2l1.1-1.1l2.6,2.6l-1.1,1.1l-9.6,1.6l-1.3-1.4l6.7-6.7c0.5-0.5,1.1-0.9,1.8-1c0.6-0.2,1.3-0.2,1.9,0
		c0.6,0.1,1.3,0.4,1.9,0.8c0.6,0.4,1.2,0.8,1.7,1.3c0.5,0.5,0.9,1.1,1.3,1.7c0.4,0.6,0.6,1.2,0.8,1.9c0.1,0.6,0.1,1.3,0,1.9
		c-0.2,0.6-0.5,1.2-1.1,1.8l-6.7,6.7l-1.3-1.4L70.8,39.9z"/>
	<path class="st1" d="M70.4,28.8l5.8,5.8l1.2-1.2l1.4,1.3l-2.3,2.3l-7.1-7.1L70.4,28.8z"/>
</g>
</svg>
