<?xml version="1.0" encoding="utf-8"?>
<!-- Generator: Adobe Illustrator 19.1.0, SVG Export Plug-In . SVG Version: 6.00 Build 0)  -->
<svg version="1.1" id="Layer_1" xmlns="http://www.w3.org/2000/svg" xmlns:xlink="http://www.w3.org/1999/xlink" x="0px" y="0px"
	 viewBox="0 0 63.4 59.5" style="enable-background:new 0 0 63.4 59.5;" xml:space="preserve">
<style type="text/css">
	.st0{fill:none;stroke:#ED2024;stroke-width:3;stroke-miterlimit:10;}
	.st1{fill:none;stroke:#ED2024;stroke-width:2.5977;stroke-linecap:round;stroke-miterlimit:10;}
	.st2{fill:#ED2024;}
</style>
<g>
	<path class="st0" d="M59.3,58H4.1c-1.4,0-2.6-1.2-2.6-2.6V37.2c0-1.4,1.2-2.6,2.6-2.6h55.2c1.4,0,2.6,1.2,2.6,2.6v18.2
		C61.9,56.8,60.7,58,59.3,58z"/>
	<path class="st0" d="M50.2,34.6H12.5c-1.4,0-2.6-1.2-2.6-2.6V4.1c0-1.4,1.2-2.6,2.6-2.6h37.7c1.4,0,2.6,1.2,2.6,2.6V32
		C52.8,33.5,51.6,34.6,50.2,34.6z"/>
	<line class="st1" x1="18.7" y1="13.2" x2="44" y2="13.2"/>
	<line class="st1" x1="18.7" y1="24.2" x2="44" y2="24.2"/>
	<circle class="st2" cx="53.1" cy="46" r="2.6"/>
</g>
<g>
</g>
<g>
</g>
<g>
</g>
<g>
</g>
<g>
</g>
<g>
</g>
</svg>
