<?xml version="1.0" encoding="UTF-8"?>
<svg width="84px" height="103px" viewBox="0 0 84 103" version="1.1" xmlns="http://www.w3.org/2000/svg" xmlns:xlink="http://www.w3.org/1999/xlink">
    <!-- Generator: Sketch 52.4 (67378) - http://www.bohemiancoding.com/sketch -->
    <title>Group 3</title>
    <desc>Created with Sketch.</desc>
    <g id="Page-1" stroke="none" stroke-width="1" fill="none" fill-rule="evenodd">
        <g id="Group-3">
            <polygon id="Rectangle-20-Copy" fill="#753b16" points="0 2.14949586e-14 84 2.14949586e-14 84 103 42 87.440678 0 103"></polygon>
            <path d="M14.0364823,55.5124192 C14.2830468,55.9703247 14.3300108,56.5562003 14.1773756,57.2700633 C14.0129993,58.0426322 13.6807292,58.6848645 13.1805554,59.1967794 C12.5911487,59.7979273 11.8702518,60.0984967 11.017843,60.0984967 C10.2217917,60.0984967 9.6523536,59.8354984 9.30951148,59.3094941 C9.0112858,58.8022756 8.94436215,58.1612174 9.1087385,57.3863003 C9.25667723,56.6865267 9.55724663,56.087736 10.0104557,55.5899105 C10.5928177,54.9511909 11.3207592,54.6318359 12.1943022,54.6318359 C13.1077651,54.6318359 13.721819,54.9253607 14.0364823,55.5124192 Z M13.4552974,57.2806303 C13.5844502,56.6724378 13.5298546,56.1828384 13.2915089,55.8118175 C13.0531632,55.4407965 12.6580788,55.2552889 12.1062438,55.2552889 C11.5708466,55.2552889 11.0947493,55.4390354 10.6779378,55.806534 C10.2611264,56.1740326 9.97640728,56.7158794 9.82377209,57.4320906 C9.70166394,58.0050597 9.74393151,58.4882015 9.95057608,58.8815306 C10.1572206,59.2748598 10.5857669,59.4715214 11.2362276,59.4715214 C11.8538131,59.4715214 12.3475218,59.2502037 12.7173686,58.8075616 C13.0872154,58.3649196 13.3331892,57.8559476 13.4552974,57.2806303 Z M15.5440408,54.7727293 L16.371789,54.7727293 L18.0942099,58.9643055 L18.9853601,54.7727293 L19.651081,54.7727293 L18.5521131,59.9470364 L17.7666329,59.9470364 L16.0019441,55.7589825 L15.1143162,59.9470364 L14.4450729,59.9470364 L15.5440408,54.7727293 Z M20.7535712,54.7727293 L21.4545155,54.7727293 L20.4858739,59.3306281 L23.1064896,59.3306281 L22.9761633,59.9470364 L19.6546034,59.9470364 L20.7535712,54.7727293 Z M24.9240134,54.7727293 L25.6320024,54.7727293 L24.5330345,59.9470364 L23.8250456,59.9470364 L24.9240134,54.7727293 Z M26.7697159,54.7727293 L27.5974642,54.7727293 L29.319885,58.9643055 L30.2110352,54.7727293 L30.8767561,54.7727293 L29.7777882,59.9470364 L28.992308,59.9470364 L27.2276192,55.7589825 L26.3399913,59.9470364 L25.670748,59.9470364 L26.7697159,54.7727293 Z M32.0461707,54.7727293 L35.8185893,54.7727293 L35.6812183,55.4067492 L32.5921323,55.4067492 L32.261033,56.9777097 L35.117645,56.9777097 L34.990841,57.5765063 L32.134229,57.5765063 L31.7608617,59.3306281 L34.9027827,59.3306281 L34.7724564,59.9470364 L30.9472028,59.9470364 L32.0461707,54.7727293 Z M39.8093925,59.3482398 C40.0465641,59.3482398 40.246161,59.3235837 40.4081891,59.2742708 C40.6993701,59.1826896 40.9600201,59.0065748 41.190147,58.7459208 C41.3733092,58.536928 41.5294644,58.2692334 41.6586173,57.9428289 C41.736109,57.7479255 41.7924658,57.5671142 41.8276893,57.4003896 C41.9638868,56.7593218 41.942166,56.2615038 41.7625261,55.9069205 C41.5828862,55.5523372 41.2101097,55.3750482 40.6441854,55.3750482 L39.4008019,55.3750482 L38.5589643,59.3482398 L39.8093925,59.3482398 Z M38.8266616,54.7727293 L40.9224497,54.7727293 C41.6339645,54.7727293 42.1317826,55.0251606 42.4159189,55.5300308 C42.6695281,55.9855882 42.7200144,56.5691155 42.5673792,57.2806303 C42.4523157,57.830117 42.2433261,58.326761 41.9404039,58.7705772 C41.4120513,59.5548872 40.7040695,59.9470364 39.8164372,59.9470364 L37.7276937,59.9470364 L38.8266616,54.7727293 Z M44.0714154,54.7727293 L47.8438339,54.7727293 L47.706463,55.4067492 L44.617377,55.4067492 L44.2862777,56.9777097 L47.1428897,56.9777097 L47.0160857,57.5765063 L44.1594737,57.5765063 L43.7861064,59.3306281 L46.9280274,59.3306281 L46.7977011,59.9470364 L42.9724475,59.9470364 L44.0714154,54.7727293 Z M48.8159978,54.7727293 L49.5169421,54.7727293 L48.5483005,59.3306281 L51.1689162,59.3306281 L51.0385899,59.9470364 L47.71703,59.9470364 L48.8159978,54.7727293 Z M52.98644,54.7727293 L53.694429,54.7727293 L52.5954611,59.9470364 L51.8874722,59.9470364 L52.98644,54.7727293 Z M55.2407331,54.7727293 L55.7902171,59.1791678 L58.1959705,54.7727293 L58.9814507,54.7727293 L55.9945124,59.9470364 L55.2513001,59.9470364 L54.4658199,54.7727293 L55.2407331,54.7727293 Z M59.7105736,54.7727293 L63.4829922,54.7727293 L63.3456213,55.4067492 L60.2565353,55.4067492 L59.925436,56.9777097 L62.782048,56.9777097 L62.655244,57.5765063 L59.798632,57.5765063 L59.4252647,59.3306281 L62.5671857,59.3306281 L62.4368594,59.9470364 L58.6116058,59.9470364 L59.7105736,54.7727293 Z M66.3572159,57.1432593 C66.6859686,57.1432593 66.9601208,57.0775098 67.1796807,56.9460087 C67.3992405,56.8145076 67.5454159,56.5773396 67.6182111,56.2344974 C67.6957028,55.8658247 67.61469,55.6145675 67.3751701,55.4807182 C67.2460173,55.4102712 67.0616837,55.3750482 66.8221639,55.3750482 L65.1103101,55.3750482 L64.7369428,57.1432593 L66.3572159,57.1432593 Z M64.5396921,54.7727293 L66.9348785,54.7727293 C67.3293818,54.7727293 67.6416922,54.8302601 67.8718191,54.9453236 C68.3109388,55.1660575 68.4682681,55.57347 68.3438117,56.1675731 C68.2780612,56.47754 68.1600642,56.7311454 67.9898172,56.928397 C67.8195703,57.1256487 67.6064713,57.284152 67.3505138,57.403912 C67.5360243,57.4861001 67.6651752,57.5941173 67.7379704,57.7279666 C67.8107657,57.8618159 67.8213326,58.0790243 67.7696714,58.3795982 L67.6463898,59.0734978 C67.6111663,59.2707494 67.5970771,59.4175118 67.6041218,59.5137894 C67.6111665,59.6781658 67.664001,59.7838347 67.7626268,59.8307994 L67.7379704,59.9470364 L66.8785212,59.9470364 C66.8644318,59.9024199 66.8573872,59.8448891 66.8573872,59.774442 C66.8573872,59.703995 66.8749987,59.5677995 66.9102222,59.3658514 L67.0511155,58.5028798 C67.1051249,58.1647342 67.0276343,57.938133 66.8186415,57.8230696 C66.6965334,57.7596673 66.4922401,57.7279666 66.2057556,57.7279666 L64.6101388,57.7279666 L64.1416685,59.9470364 L63.4407242,59.9470364 L64.5396921,54.7727293 Z M69.1363366,54.7727293 L69.9535179,54.7727293 L70.9115924,57.2594963 L72.9263669,54.7727293 L73.7470704,54.7727293 L71.1334994,57.8618153 L70.6932078,59.9470364 L69.9922635,59.9470364 L70.4325551,57.8618153 L69.1363366,54.7727293 Z" id="ONLINE-DELIVERY-Copy" fill="#FFFFFF"></path>
            <g id="flaticon1550299277-svg" transform="translate(42.400000, 74.500000) rotate(-270.000000) translate(-42.400000, -74.500000) translate(38.900000, 67.000000)" fill="#FFFFFF">
                <path d="M6.53240866,7.95637361 L1.73226028,13.9759643 C1.42691286,14.3590807 0.931844366,14.5038317 0.626645187,14.1207153 C0.321421301,13.7379397 1.04643035,12.9723326 1.35165424,12.589588 L5.59904448,7.26316994 L1.35177777,1.93693783 C1.04655389,1.55400732 0.321421301,0.801280191 0.626645187,0.418504605 C0.931869073,0.0355740999 1.4270364,0.167568995 1.73238381,0.5504995 L6.53253219,6.57018315 C6.68514414,6.7616639 6.76136364,7.01235495 6.76136364,7.26316994 C6.76136364,7.51410886 6.6849959,7.76498582 6.53240866,7.95637361 Z" id="Path"></path>
            </g>
            <g id="flaticon1550299271-svg" transform="translate(36.200000, 68.000000)" fill="#FFFFFF">
                <path d="M4.5732751,2.56545029 L8.9589791,-3.28215505 C9.06684096,-3.42597086 9.06684096,-3.65661887 8.9589791,-3.80043468 C8.85111723,-3.9442505 8.67813123,-3.9442505 8.57026937,-3.80043468 L3.98919294,2.30766722 C3.88133108,2.45148304 3.88133108,2.68213104 3.98919294,2.82594686 L8.57026937,8.93133525 C8.62318273,9.00188641 8.69441227,9.03987549 8.76360667,9.03987549 C8.83280107,9.03987549 8.9040306,9.00459991 8.95694397,8.93133525 C9.06480583,8.78751944 9.06480583,8.55687143 8.95694397,8.41305562 L4.5732751,2.56545029 Z" id="Path" transform="translate(6.474086, 2.565789) rotate(-90.000000) translate(-6.474086, -2.565789) "></path>
            </g>
            <g id="Group-2" transform="translate(22.000000, 13.000000)" fill="#FFFFFF">
                <g id="scooter" transform="translate(4.534884, 0.000000)">
                    <circle id="Oval" cx="13.8261409" cy="3.12253953" r="3.12253953"></circle>
                    <path d="M8.07919767,25.0205256 C5.47087767,25.0205256 3.34886047,27.1425428 3.34886047,29.7508628 C3.34886047,32.3591828 5.47087767,34.4812 8.07919767,34.4812 C10.6875177,34.4812 12.8095349,32.3591828 12.8095349,29.7508628 C12.8095349,27.1425428 10.6875177,25.0205256 8.07919767,25.0205256 Z M8.07919767,31.0984488 C7.33612977,31.0984488 6.73149674,30.4939307 6.73149674,29.7507479 C6.73149674,29.0075651 7.33601488,28.403047 8.07919767,28.403047 C8.82238047,28.403047 9.4268986,29.0075651 9.4268986,29.7507479 C9.4268986,30.4939307 8.82226558,31.0984488 8.07919767,31.0984488 Z" id="Shape" fill-rule="nonzero"></path>
                    <path d="M34.19468,25.0960042 C32.8640967,23.5976907 30.9523167,22.7383605 28.9498935,22.7383605 C28.8692451,22.7383605 28.7894009,22.7416921 28.709327,22.7444493 C27.6306837,19.6711949 25.3944721,18.2717963 24.1198372,17.7016284 L23.8438865,16.844366 L24.605106,16.844366 C24.9109265,17.5432037 25.6080409,18.0318042 26.4196944,18.0318042 L27.3702423,18.0318042 C27.6436656,18.0318042 27.8652763,17.8101935 27.8652763,17.5367702 L27.8652763,14.5665665 C27.8652763,14.2931433 27.6436656,14.0715326 27.3702423,14.0715326 L26.4196944,14.0715326 C25.8318344,14.0715326 25.3039437,14.327953 24.9412558,14.7348712 C24.8032805,14.8896195 24.6893158,15.0663107 24.605106,15.2589707 L23.3423042,15.2589707 C23.4753395,15.0295479 23.5462228,14.7604902 23.5310581,14.4758084 C23.4895851,13.695633 22.8225702,13.0963995 22.0431991,13.1383321 L17.15662,13.3984288 L14.4182516,9.71824372 L16.7116753,11.5442056 L16.8301205,10.1944367 C16.9319074,9.0338814 16.073726,8.01061209 14.9132856,7.90882512 L11.1660084,7.58002791 C10.005453,7.47824093 8.98218372,8.33642233 8.88039674,9.49686279 L8.25301674,16.6478 C8.15008093,17.8203033 8.6189214,18.9602944 9.50226233,19.7240414 C9.55981907,19.8147995 9.62553256,19.8995837 9.69882837,19.9778195 L8.1101014,19.9778195 L3.7629014,19.9778195 C3.17596047,19.9778195 2.70011209,20.4536679 2.70011209,21.0406088 L2.70011209,23.782194 C1.27279674,25.0693512 0.309266977,26.8610777 0.0911027907,28.8763679 C0.0669772093,29.0990126 0.138779535,29.3213126 0.288243256,29.4880088 C0.437706977,29.6547051 0.65116093,29.7508628 0.875069302,29.7508628 L2.35879256,29.7508628 C2.35879256,26.5966153 4.92495023,24.0304577 8.07919767,24.0304577 C11.2334451,24.0304577 13.7996028,26.5966153 13.7996028,29.7508628 L13.8261409,29.7508628 L13.8261409,29.7509777 C13.8261409,30.165593 14.1622907,30.5016279 14.576906,30.5016279 C16.6449279,30.5016279 21.7319791,30.5016279 22.4768851,30.5016279 C23.1742293,30.5439051 23.5241651,30.1662823 23.5241651,29.6269033 C23.5241651,26.634527 25.9571726,24.3238707 28.9496637,24.3238707 C30.4994451,24.3238707 31.9790326,24.9890474 33.0089651,26.1487986 C33.2997358,26.4759874 33.8008586,26.5057423 34.1281623,26.2150865 C34.4556958,25.9244307 34.4853358,25.4233079 34.19468,25.0960042 Z M16.0706242,28.9160028 C15.9752707,27.9925674 15.7235605,27.1155451 15.3422614,26.3119335 L15.3422614,26.3107847 C14.8527419,25.2786693 14.1326507,24.3352442 13.2163381,23.572646 C13.2163381,22.4411563 13.2163381,21.7215247 13.2163381,20.741107 L16.7671642,21.0439405 L16.6770953,28.1547833 C16.6736488,28.4279767 16.7364902,28.6861205 16.8482721,28.9161177 L16.0706242,28.9161177 L16.0706242,28.9160028 Z M21.9887442,28.9161177 L21.3401107,28.9161177 L19.9015367,28.9161177 C20.0071149,28.6986428 20.0688074,28.4555488 20.0721391,28.1977498 L20.1820828,19.5147233 C20.1933414,18.6275912 19.5196633,17.8814214 18.6359777,17.8022665 L16.0329423,17.7080619 C15.2161191,17.7514879 14.4933856,17.2589814 14.2041084,16.5402688 L12.1479195,11.4071493 L15.3389298,15.6957586 C15.618327,16.0711986 16.0699349,16.2892479 16.5491149,16.2638586 L21.8992498,15.9790619 L22.3469516,17.3699591 L24.5711005,24.2789512 C23.1722763,25.4009056 22.2116186,27.0463851 21.9887442,28.9161177 Z" id="Shape" fill-rule="nonzero"></path>
                    <path d="M28.9497786,25.0205256 C26.3414586,25.0205256 24.2194414,27.1425428 24.2194414,29.7508628 C24.2194414,32.3591828 26.3414586,34.4812 28.9497786,34.4812 C31.5580986,34.4812 33.6801158,32.3591828 33.6801158,29.7508628 C33.6801158,27.1425428 31.5580986,25.0205256 28.9497786,25.0205256 Z M28.9497786,31.0984488 C28.2067107,31.0984488 27.6020777,30.4939307 27.6020777,29.7507479 C27.6020777,29.0075651 28.2065958,28.403047 28.9497786,28.403047 C29.6928465,28.403047 30.2973647,29.0075651 30.2973647,29.7507479 C30.2973647,30.4939307 29.6929614,31.0984488 28.9497786,31.0984488 Z" id="Shape" fill-rule="nonzero"></path>
                </g>
                <path d="M1.45348837,9.52325581 L11.244186,9.52325581 C11.7964708,9.52325581 12.244186,9.97097106 12.244186,10.5232558 L12.244186,18.5 C12.244186,19.0522847 11.7964708,19.5 11.244186,19.5 L1.45348837,19.5 C0.901203622,19.5 0.453488372,19.0522847 0.453488372,18.5 L0.453488372,10.5232558 C0.453488372,9.97097106 0.901203622,9.52325581 1.45348837,9.52325581 Z" id="Rectangle"></path>
            </g>
        </g>
    </g>
</svg>