<?xml version="1.0" encoding="utf-8"?>
<!-- Generator: Adobe Illustrator 19.1.0, SVG Export Plug-In . SVG Version: 6.00 Build 0)  -->
<svg version="1.1" id="Layer_1" xmlns="http://www.w3.org/2000/svg" xmlns:xlink="http://www.w3.org/1999/xlink" x="0px" y="0px"
	 viewBox="0 0 71 71" style="enable-background:new 0 0 71 71;" xml:space="preserve">
<style type="text/css">
	.st0{fill:#EA242A;}
	.st1{clip-path:url(#SVGID_2_);fill:#BA202A;}
	.st2{fill:#FFFFFF;}
</style>
<g>
	<path class="st0" d="M35.5,71L35.5,71C15.9,71,0,55.1,0,35.5v0C0,15.9,15.9,0,35.5,0h0C55.1,0,71,15.9,71,35.5v0
		C71,55.1,55.1,71,35.5,71z"/>
	<g>
		<defs>
			<rect id="SVGID_1_" x="35.8" y="-12.3" width="39" height="100.7"/>
		</defs>
		<clipPath id="SVGID_2_">
			<use xlink:href="#SVGID_1_"  style="overflow:visible;"/>
		</clipPath>
		<path class="st1" d="M35.5,71L35.5,71C15.9,71,0,55.1,0,35.5v0C0,15.9,15.9,0,35.5,0h0C55.1,0,71,15.9,71,35.5v0
			C71,55.1,55.1,71,35.5,71z"/>
	</g>
</g>
<path class="st2" d="M25,19.2h24.8c2.4,0,4.3,1.9,4.3,4.3v24.8c0,2.4-1.9,4.3-4.3,4.3H25c-2.4,0-4.3-1.9-4.3-4.3V23.4
	C20.7,21.1,22.6,19.2,25,19.2z M45,22.9c-0.8,0-1.5,0.7-1.5,1.5V28c0,0.8,0.7,1.5,1.5,1.5h3.8c0.8,0,1.5-0.7,1.5-1.5v-3.6
	c0-0.8-0.7-1.5-1.5-1.5H45z M50.3,33.3h-2.9c0.3,0.9,0.4,1.9,0.4,2.9c0,5.5-4.6,10-10.4,10c-5.7,0-10.4-4.5-10.4-10
	c0-1,0.2-2,0.4-2.9h-3.1v14.1c0,0.7,0.6,1.3,1.3,1.3H49c0.7,0,1.3-0.6,1.3-1.3V33.3z M37.4,29.3c-3.7,0-6.7,2.9-6.7,6.5
	c0,3.6,3,6.5,6.7,6.5c3.7,0,6.7-2.9,6.7-6.5C44.1,32.2,41.1,29.3,37.4,29.3z"/>
</svg>
