<?xml version="1.0" encoding="utf-8"?>
<!-- Generator: Adobe Illustrator 19.1.0, SVG Export Plug-In . SVG Version: 6.00 Build 0)  -->
<svg version="1.1" id="Layer_1" xmlns="http://www.w3.org/2000/svg" xmlns:xlink="http://www.w3.org/1999/xlink" x="0px" y="0px"
	 viewBox="0 0 62.7 64.1" style="enable-background:new 0 0 62.7 64.1;" xml:space="preserve">
<style type="text/css">
	.st0{fill:#EA2A2D;}
	.st1{clip-path:url(#SVGID_2_);}
	.st2{fill:#FFFFFF;}
	.st3{fill:none;stroke:#EA2A2D;stroke-width:2.5337;stroke-miterlimit:10;}
</style>
<g>
	<polygon class="st0" points="0,32.1 0,64.1 62.7,64.1 62.7,32.1 46.1,45.4 15.2,45.4 	"/>
	<polygon class="st0" points="0,26 7.2,19.6 7.2,8.7 21.7,8.7 31.4,0 41.2,8.7 54.9,8.7 54.9,20.1 61,26 51.5,33.8 51.5,12.7 
		11.2,12.7 11.2,34.8 	"/>
	<g>
		<defs>
			<polygon id="SVGID_1_" points="0,32.1 0,64.1 62.7,64.1 62.7,32.1 46.1,45.4 15.2,45.4 			"/>
		</defs>
		<clipPath id="SVGID_2_">
			<use xlink:href="#SVGID_1_"  style="overflow:visible;"/>
		</clipPath>
		<g class="st1">
			<g>
				<path class="st2" d="M7.8,56.8c-0.3,0-0.5-0.1-0.7-0.2c-0.6-0.4-0.7-1.2-0.3-1.8l7.4-10.1c0.4-0.6,1.2-0.7,1.8-0.3
					c0.6,0.4,0.7,1.2,0.3,1.8L8.8,56.3C8.6,56.6,8.2,56.8,7.8,56.8z"/>
			</g>
			<g>
				<path class="st2" d="M53.5,56.8c-0.4,0-0.8-0.2-1-0.5l-7.4-10.1c-0.4-0.6-0.3-1.4,0.3-1.8c0.6-0.4,1.4-0.3,1.8,0.3l7.4,10.1
					c0.4,0.6,0.3,1.4-0.3,1.8C54.1,56.7,53.8,56.8,53.5,56.8z"/>
			</g>
		</g>
	</g>
	<line class="st3" x1="17.4" y1="23.4" x2="29.9" y2="23.4"/>
	<line class="st3" x1="17.4" y1="29.7" x2="43.1" y2="29.7"/>
	<line class="st3" x1="17.4" y1="35.7" x2="43.1" y2="35.7"/>
</g>
</svg>
