<?xml version="1.0" encoding="utf-8"?>
<!-- Generator: Adobe Illustrator 19.1.0, SVG Export Plug-In . SVG Version: 6.00 Build 0)  -->
<svg version="1.1" id="Layer_1" xmlns="http://www.w3.org/2000/svg" xmlns:xlink="http://www.w3.org/1999/xlink" x="0px" y="0px"
	 viewBox="0 0 85.1 74.7" style="enable-background:new 0 0 85.1 74.7;" xml:space="preserve">
<style type="text/css">
	.st0{fill:#0B8F45;}
	.st1{fill:#FFFFFF;}
</style>
<polygon class="st0" points="0,0 85.1,0 85.1,74.7 "/>
<g>
	<path class="st1" d="M55.9,12.9c-0.3,0.3-0.5,0.4-0.8,0.4c-0.3,0-0.6,0.1-0.8,0.1c-0.3,0-0.6,0-0.8,0.1c-0.3,0-0.6,0.2-0.8,0.5
		L41.5,25.1l-1.4-1.3l11.2-11.2c0.3-0.3,0.7-0.5,1-0.6c0.3-0.1,0.6-0.1,0.8-0.1c0.3,0,0.5,0,0.7,0c0.2,0,0.4-0.1,0.6-0.3
		c0.5-0.5,0.3-1.1-0.4-1.8c-0.5-0.5-0.9-0.7-1.3-0.7c-0.4,0-0.8,0.2-1.2,0.6l-1.4-1.4c0.3-0.4,0.7-0.7,1.1-0.9
		c0.4-0.2,0.8-0.3,1.3-0.3c0.4,0,0.9,0.1,1.3,0.3c0.5,0.2,0.9,0.5,1.3,1c0.8,0.8,1.3,1.6,1.4,2.4C56.7,11.7,56.5,12.3,55.9,12.9z"/>
	<path class="st1" d="M55.2,28.8c0.4-0.4,0.6-0.7,0.7-1c0.1-0.3,0.2-0.7,0.2-1c0-0.3-0.1-0.6-0.3-1c-0.2-0.3-0.4-0.6-0.7-0.9
		c-0.4-0.4-0.9-0.8-1.5-1s-1.1-0.3-1.7-0.3c-0.6,0-1.1,0-1.6,0.2c-0.5,0.2-0.9,0.4-1.2,0.7l-4,4l-1.4-1.4l9.6-9.6l1.4,1.3L51.5,22
		c0.4,0,0.8,0,1.2,0.1c0.4,0.1,0.8,0.2,1.3,0.3c0.4,0.1,0.8,0.3,1.2,0.6c0.4,0.2,0.8,0.5,1.2,0.9c0.5,0.5,0.8,0.9,1.1,1.4
		c0.3,0.5,0.4,1,0.5,1.6c0.1,0.5,0,1.1-0.2,1.6c-0.2,0.5-0.6,1.1-1.1,1.6l-5.1,5.1l-1.3-1.3L55.2,28.8z M56.2,20.5l4.6,4.6l-1.2,1.2
		L55,21.7L56.2,20.5z"/>
	<path class="st1" d="M62.2,42.8c-0.5,0.2-1.1,0.3-1.6,0.2c-0.5-0.1-1-0.2-1.6-0.5c-0.5-0.3-1-0.6-1.4-1.1c-0.4-0.4-0.7-0.8-0.9-1.2
		c-0.2-0.4-0.4-0.8-0.6-1.3c-0.2-0.4-0.3-0.8-0.3-1.3s-0.1-0.8,0-1.2l-1.4,1.4L53,36.6l9.6-9.6l1.4,1.3L58.3,34
		c-0.3,0.3-0.5,0.7-0.7,1.1c-0.2,0.5-0.3,1-0.3,1.6c0,0.6,0.1,1.2,0.3,1.7c0.2,0.6,0.5,1.1,1,1.6c0.3,0.3,0.6,0.5,0.9,0.7
		c0.3,0.2,0.6,0.3,1,0.3c0.3,0,0.7,0,1-0.2c0.3-0.1,0.7-0.4,1-0.7l6.7-6.7l1.3,1.3l-6.7,6.8C63.3,42.2,62.8,42.6,62.2,42.8z"/>
	<path class="st1" d="M72.7,30.1l1.4,1.3l-2.3,2.3l-1.4-1.3L72.7,30.1z"/>
</g>
</svg>
