<?xml version="1.0" encoding="utf-8"?>
<!-- Generator: Adobe Illustrator 22.0.1, SVG Export Plug-In . SVG Version: 6.00 Build 0)  -->
<svg version="1.1" id="Layer_1" xmlns="http://www.w3.org/2000/svg" xmlns:xlink="http://www.w3.org/1999/xlink" x="0px" y="0px"
	 viewBox="0 0 90 42" style="enable-background:new 0 0 90 42;" xml:space="preserve">
<style type="text/css">
	.st0{fill:#FE3030;}
	.st1{fill:#990000;}
	.st2{fill:#FEFEFE;}
</style>
<g>
	<path class="st0" d="M15.1,15.7c0.5,0.4,0.5,1,0,1.4L0.7,29c-1.8,1.5,0,3.7,3.2,3.7h68.5v4.7H90V4.7C90,2.1,86.5,0,82.2,0H3.9
		c-3.2,0-5,2.1-3.2,3.7L15.1,15.7z M15.1,15.7"/>
	<path class="st1" d="M72.4,42h9.8c4.3,0,7.8-2.1,7.8-4.7c0-2.6-3.5-4.7-7.8-4.7h-9.8V42z M72.4,42"/>
</g>
<g>
	<path class="st2" d="M36.9,19.5c-0.2,0.3-0.4,0.6-0.7,0.8s-0.6,0.3-0.9,0.4c-0.3,0.1-0.7,0.1-1,0.1c-0.3,0-0.7,0-1-0.1
		c-0.3-0.1-0.7-0.2-0.9-0.4c-0.3-0.2-0.5-0.4-0.7-0.8s-0.3-0.7-0.3-1.2v-2.9c0-0.2,0-0.4,0.1-0.5c0.1-0.1,0.2-0.2,0.3-0.3
		c0.1-0.1,0.2-0.2,0.4-0.3c0.1-0.1,0.3-0.1,0.4-0.2c0.1-0.1,0.2-0.1,0.3-0.2c0.1-0.1,0.1-0.1,0.1-0.2c0-0.3-0.2-0.4-0.6-0.4h-1v-1
		h1.1c0.6,0,1.1,0.1,1.3,0.3c0.3,0.2,0.4,0.5,0.4,1c0,0.2,0,0.4-0.1,0.5c-0.1,0.1-0.2,0.3-0.3,0.4c-0.1,0.1-0.2,0.2-0.4,0.3
		c-0.1,0.1-0.3,0.1-0.4,0.2c-0.1,0.1-0.2,0.2-0.3,0.3c-0.1,0.1-0.1,0.2-0.1,0.4v2.6c0,0.3,0,0.6,0.1,0.8c0.1,0.2,0.2,0.4,0.4,0.5
		c0.2,0.1,0.3,0.2,0.6,0.3c0.2,0.1,0.4,0.1,0.7,0.1c0.2,0,0.5,0,0.7-0.1c0.2-0.1,0.4-0.1,0.6-0.3c0.2-0.1,0.3-0.3,0.4-0.5
		c0.1-0.2,0.1-0.5,0.1-0.8v-5.8h1.2v6C37.2,18.8,37.1,19.2,36.9,19.5z"/>
	<path class="st2" d="M40.5,14.4c0-0.2-0.1-0.4-0.2-0.6c-0.1-0.2-0.3-0.3-0.5-0.4c-0.2-0.1-0.5-0.1-0.8-0.1c-0.3,0-0.6,0-0.9,0.1
		v-1.1c0.4-0.1,0.9-0.1,1.3-0.1s0.8,0.1,1.1,0.2c0.3,0.1,0.6,0.3,0.8,0.6c0.2,0.3,0.3,0.6,0.3,1v6.5h-1.2V14.4z"/>
	<path class="st2" d="M44.9,20.5c-0.4-0.1-0.8-0.2-1.1-0.4c-0.3-0.2-0.5-0.5-0.7-0.8c-0.2-0.3-0.2-0.7-0.2-1.2
		c0-0.3,0.1-0.6,0.2-0.9s0.2-0.5,0.4-0.6c0.2-0.2,0.3-0.3,0.5-0.4c0.2-0.1,0.3-0.2,0.5-0.2c-0.1,0-0.3-0.1-0.4-0.1
		c-0.2-0.1-0.3-0.2-0.4-0.3c-0.1-0.1-0.3-0.3-0.3-0.5c-0.1-0.2-0.1-0.5-0.1-0.7c0-0.4,0.1-0.8,0.4-1.2c0.3-0.3,0.6-0.6,1.1-0.7
		c0.1,0,0.3-0.1,0.4-0.1c0.2,0,0.3,0,0.5-0.1s0.4,0,0.5,0s0.4,0,0.5,0.1v1.1c-0.3,0-0.6-0.1-0.9-0.1c-0.3,0-0.5,0-0.7,0.1
		c-0.2,0.1-0.4,0.2-0.5,0.3c-0.1,0.1-0.2,0.3-0.2,0.5c0,0.2,0.1,0.4,0.2,0.5c0.1,0.1,0.2,0.2,0.4,0.3c0.2,0.1,0.4,0.1,0.6,0.2
		c0.2,0,0.4,0,0.7,0h1v1h-0.7c-0.8,0-1.3,0.2-1.7,0.5S44,17.5,44,18c0,0.3,0.1,0.6,0.2,0.8c0.1,0.2,0.3,0.4,0.5,0.5s0.5,0.2,0.8,0.2
		c0.3,0,0.7,0.1,1,0l2.3-0.1v-7.3h1.2v8.3l-3.7,0.1C45.8,20.7,45.3,20.6,44.9,20.5z"/>
	<path class="st2" d="M57.5,14.9c0-0.3-0.1-0.6-0.2-0.8c-0.1-0.2-0.3-0.4-0.5-0.5c-0.2-0.1-0.5-0.2-0.8-0.3s-0.6-0.1-0.9-0.1
		c-0.3,0-0.6,0-0.9,0.1s-0.5,0.2-0.8,0.3c-0.2,0.1-0.4,0.3-0.5,0.5c-0.1,0.2-0.2,0.5-0.2,0.8v2.7c0,0.2,0,0.4,0,0.6s0,0.4,0,0.5
		l-0.1,0.5h0c0-0.1,0-0.1,0.1-0.2c0-0.1,0-0.1,0.1-0.2c0-0.1,0.1-0.2,0.2-0.3c0.1-0.1,0.1-0.2,0.2-0.3l1.8-2.5h-1v-0.9h2.2v0.9
		l-3.5,4.9h-1.2v-5.8c0-0.5,0.1-0.9,0.3-1.2s0.5-0.6,0.8-0.8c0.3-0.2,0.7-0.4,1.1-0.5c0.4-0.1,0.9-0.2,1.3-0.2
		c0.4,0,0.9,0.1,1.3,0.2c0.4,0.1,0.8,0.3,1.1,0.5c0.3,0.2,0.6,0.5,0.8,0.8c0.2,0.3,0.3,0.7,0.3,1.2v5.8h-1.2V14.9z"/>
	<path class="st2" d="M52.7,10.3h5V9.3h1.2v2h-6.2V10.3z"/>
</g>
</svg>
