<?xml version="1.0" encoding="utf-8"?>
<!-- Generator: Adobe Illustrator 19.1.0, SVG Export Plug-In . SVG Version: 6.00 Build 0)  -->
<svg version="1.1" id="Layer_1" xmlns="http://www.w3.org/2000/svg" xmlns:xlink="http://www.w3.org/1999/xlink" x="0px" y="0px"
	 viewBox="0 0 71 71" style="enable-background:new 0 0 71 71;" xml:space="preserve">
<style type="text/css">
	.st0{fill:#EA242A;}
	.st1{clip-path:url(#SVGID_2_);fill:#BA202A;}
	.st2{fill:#FFFFFF;}
	.st3{fill:#EC1C24;}
</style>
<g>
	<path class="st0" d="M35.5,71L35.5,71C15.9,71,0,55.1,0,35.5v0C0,15.9,15.9,0,35.5,0h0C55.1,0,71,15.9,71,35.5v0
		C71,55.1,55.1,71,35.5,71z"/>
	<g>
		<defs>
			<rect id="SVGID_1_" x="35.8" y="-12.3" width="39" height="100.7"/>
		</defs>
		<clipPath id="SVGID_2_">
			<use xlink:href="#SVGID_1_"  style="overflow:visible;"/>
		</clipPath>
		<path class="st1" d="M35.5,71L35.5,71C15.9,71,0,55.1,0,35.5v0C0,15.9,15.9,0,35.5,0h0C55.1,0,71,15.9,71,35.5v0
			C71,55.1,55.1,71,35.5,71z"/>
	</g>
</g>
<path class="st2" d="M51.5,46.5H22c-2.3,0-4.2-1.9-4.2-4.2V27.9c0-2.3,1.9-4.2,4.2-4.2h29.5c2.3,0,4.2,1.9,4.2,4.2v14.4
	C55.7,44.6,53.8,46.5,51.5,46.5z"/>
<polygon class="st3" points="36.7,32.3 31.9,29.5 31.9,35.1 31.9,40.7 36.7,37.9 41.6,35.1 "/>
</svg>
