<?xml version="1.0" encoding="utf-8"?>
<svg version="1.1"  xmlns="http://www.w3.org/2000/svg" xmlns:xlink="http://www.w3.org/1999/xlink" id="svg-bag-deli" viewBox="0 0 537.3 512"><path fill="#753b16" d="M531.2 14.1C527.1 10 522.3 8 516.7 8h-496c-5.6 0-10.4 2-14.5 6.1C2 18.2 0 23.1 0 28.7v82.7c0 5.6 2 10.4 6.1 14.5S15 132 20.6 132h496c5.6 0 10.4-2 14.5-6.1s6.1-8.9 6.1-14.5V28.7c.1-5.6-1.9-10.5-6-14.6zM309.4 322.5l-85 12.6 85 .1c2.2 0 4-1.8 4-4v-4.7c0-2.2-1.8-4-4-4zM309.7 351.5l-94 11.7 94 .2c2.1 0 3.7-1.7 3.7-3.7v-4.4c0-2.1-1.6-3.8-3.7-3.8zM309.2 293.3l-70.5 13.5h70.5c2.3 0 4.2-1.9 4.2-4.2v-5c0-2.4-1.9-4.3-4.2-4.3z"></path><path fill="#753b16" d="M510.5 158.8c-4.1-4.1-8.9-6.1-14.5-6.1H41.3c-5.6 0-10.4 2-14.5 6.1s-6.1 8.9-6.1 14.5v310c0 5.6 2 10.4 6.1 14.5s8.9 6.1 14.5 6.1H496c5.6 0 10.4-2 14.5-6.1s6.1-8.9 6.1-14.5v-310c.1-5.6-2-10.4-6.1-14.5zM358.2 393.3c0 13.6-11 24.6-24.6 24.6H203.7c-13.6 0-24.6-11-24.6-24.6V263.4c0-13.6 11-24.6 24.6-24.6h129.9c13.6 0 24.6 11 24.6 24.6v129.9z"></path></svg>