<?xml version="1.0" encoding="utf-8"?>
<svg version="1.1"  xmlns="http://www.w3.org/2000/svg" xmlns:xlink="http://www.w3.org/1999/xlink"  id="svg-cart" viewBox="0 0 692.8 512"><path d="M687.8 98.6c-4-6.7-12.3-14.6-28.9-14.6H197.7s-13.4-28.8-22.4-48.4C166.3 16.1 154.1 8 134.5 8H44C19.7 8 0 27.7 0 52s19.7 44 44 44h62.3S216.6 339.8 222 351.7c5.4 11.9 16.5 29.7 30.2 29.7s304-.1 315.5-.1c18.1 0 24.5-17.1 29.9-29.6 5.4-12.5 75.5-167.2 75.5-167.2 5.2-9.9 30.2-60.2 14.7-85.9z"></path><circle cx="308.8" cy="457.2" r="46.8"></circle><circle cx="516.7" cy="457.2" r="46.8"></circle></svg>