<?xml version="1.0" encoding="utf-8"?>
<svg version="1.1" xmlns="http://www.w3.org/2000/svg" xmlns:xlink="http://www.w3.org/1999/xlink" id="svg-tag" viewBox="0 0 511.8 512"><path d="M499 257.8l-233.7-232C251.2 11.7 241.4-8.4 200 3.6L43.1 34.8l-8.6 8.5-31 155.2c-11.5 41 8.1 50.8 22.6 64.8l233.3 232.6c20.5 20 50.8 22.6 72.5.8 21.8-21.8 142-141.1 167.6-166.7 13.1-13.3 19.5-52.1-.5-72.2zM151.1 147.4c-16.3 16.3-42.6 16.3-58.9 0s-16.3-42.6 0-58.9 42.6-16.3 58.9 0c16.2 16.3 16.1 42.6 0 58.9z"></path></svg>