<?xml version="1.0" encoding="utf-8"?>
<svg version="1.1" xmlns="http://www.w3.org/2000/svg" xmlns:xlink="http://www.w3.org/1999/xlink"  id="svg-image-add" viewBox="0 0 520.9 512"><path d="M391.7 377.7v-38.9c0-21.1 17.2-38.3 38.3-38.3v-195c0-6-4.9-10.9-10.9-10.9H10.9c-6 0-10.9 4.9-10.9 10.9v299.6c0 6 4.8 10.9 10.8 11H314.5c0-21.2 17.2-38.3 38.3-38.3l38.9-.1zM92.9 153.6c21.3 0 38.6 17.2 38.7 38.6s-17.2 38.6-38.6 38.6-38.6-17.2-38.7-38.6c0-21.3 17.3-38.6 38.6-38.6zm177.5 182.8l-98.2-73.7L68.8 373.5c-5.1 5.5-13.7 5.9-19.2.8s-5.9-13.7-.8-19.2l120.1-128.9 97.7 73.3 106.2-119.4c5.3-5.3 14-5.3 19.3.1 4.8 4.9 5.3 12.6 1.1 18L270.4 336.4z"></path><path d="M507.3 402.4h-63.7v-63.6c0-7.5-6.1-13.6-13.6-13.6s-13.6 6.1-13.6 13.6v63.6H353c-7.5 0-13.6 6.1-13.6 13.6s6.1 13.6 13.6 13.6h63.6v63.8c0 7.5 6.1 13.6 13.6 13.6s13.6-6.1 13.6-13.6v-63.8h63.6c7.5 0 13.6-6.1 13.6-13.6-.1-7.5-6.2-13.6-13.7-13.6z"></path></svg>