<?xml version="1.0" encoding="utf-8"?>
<!-- Generator: Adobe Illustrator 19.1.0, SVG Export Plug-In . SVG Version: 6.00 Build 0)  -->
<svg version="1.1" id="Layer_1" xmlns="http://www.w3.org/2000/svg" xmlns:xlink="http://www.w3.org/1999/xlink" x="0px" y="0px"
	 viewBox="0 0 527.1 353.6" style="enable-background:new 0 0 527.1 353.6;" xml:space="preserve">
<style type="text/css">
	.st0{fill:#ED1C24;}
	.st1{fill:#00A651;}
	.st2{fill:#FFFFFF;}
</style>
<g>
	<path class="st0" d="M30,225.3c-2.9,5.3-7.9,10.4-14,5.5c-6.9-5.5-24.3-26.8-11.5-47C17.5,163.7,102.8,46.3,158.3,3.8
		c6.9-4.5,13.6-5.6,18.8,0c5.2,5.6,14.6,14.3,8.7,29.6c-6,15.3-23.7,56.8-23.7,56.8s63.4-68.3,73.2-76.3c9.7-8,17.2-8.2,22.3-3.4
		c5.2,4.9,20,19.1,9.7,36.6c-5.9,10.1-78.7,111.5-57.1,136.2c22.4,25.6,64.1-51.6,64.1-51.6c-8.4,41.4-55.8,119.8-99.3,97.9
		C142.1,213,192,99.9,192,99.9c-26.1,23.3-78.7,101.8-92,123.7c-7.6,12.2-20.5,4.5-20.5-19.9c0-24.4,62-129.6,62-129.6
		C97.6,105.5,50.9,188.1,30,225.3z"/>
	<path class="st0" d="M312.7,22.4c0,0-30.7,23.8-39,37.1c-8.3,13.5-9.7,43.6,24.2,29.7c33.9-13.9,83.6-37.6,83.6-37.6
		s-3.2,15.7-17.7,36.7c-9.3,7.9-27.9,19.9-31.6,26.9c-3.7,6.9-5.6,13-1.4,22.8c0,0-38.1,59.9-42.3,72c-4.1,12,1.4,29.2,14.4,23.2
		c13-6.1,28.3-24.7,29.7-30.7c1.5-6.1,0-14.9,0-14.9l20.5-33.9c0,0,114.6,69.5,131.9,79c14.4,7.9,14.4-11.6,13.9-18.6
		c-0.6-8.8-2.3-17.2-21.4-30.1c-19-13.1-89.2-54.9-94.3-58.1c-5.1-3.3-9.8-7.9-2.8-14.4c7-6.5,61.8-44.6,74.3-50.6
		c12.6-6.1,39.1-8.3,39.1-8.3c9.7-10.2,25-29.3,27.8-39.5c2.8-10.2-1.8-14.4-12.1-10.7c-10.2,3.7-95.6,52-95.6,52
		c6.5-20.9,14.2-56.3-17.7-51.6c-31.6,4.6-59,20-66,21.8C323.4,26.6,320.2,29.8,312.7,22.4z"/>
	<path class="st1" d="M503.2,340.5c0-6.2,4.7-11,10.8-11c6,0,10.7,4.8,10.7,11c0,6.4-4.7,11.2-10.7,11.2
		C507.9,351.7,503.2,346.9,503.2,340.5z M500.9,340.5c0,7.6,6,13.1,13.1,13.1c7.1,0,13.1-5.6,13.1-13.1c0-7.3-6-12.9-13.1-12.9
		C506.9,327.5,500.9,333.2,500.9,340.5z M509,348.2h2.3v-6.5h2.5l4.2,6.5h2.5l-4.3-6.7c2.2-0.3,4-1.4,4-4.1c0-2.9-1.7-4.4-5.3-4.4
		H509V348.2z M511.3,334.9h3.1c1.6,0,3.4,0.3,3.4,2.3c0,2.4-2,2.5-4.1,2.5h-2.5V334.9z"/>
	<rect x="0.2" y="259.7" class="st1" width="525.8" height="51.1"/>
	<path class="st2" d="M16.7,275.3h11c4.8,0,6.1,1.8,6.1,4.4c0,2.9-2.2,4.4-5.6,4.4H16.7V275.3z M6.5,301.6c0,1.1-0.9,1.4-1.6,1.5v1
		h14v-1c-1.2-0.1-2.2-0.3-2.2-1.5v-10.8h7.8c0.6,1.4,6.2,10.2,6.2,11.3c0,0.8-1.2,1-1.9,1v1H45v-1c-1.1,0-2.2-0.7-2.8-1.6L35,290.7
		c5-1.9,9-5.1,9-10.9c0-7.4-5.4-11.2-13.2-11.2h-26v1c0.9,0.1,1.8,0.3,1.8,1.4V301.6z"/>
	<path class="st2" d="M87.4,296.9c1,0,1.7-0.6,2.1-2h1v10.9h-0.9c-0.5-1.5-0.9-1.7-2.2-1.7h-36v-1c1.1-0.1,2.2-0.3,2.2-1.5v-30.7
		c0-1.1-1.1-1.3-2.2-1.4v-1h36.7c0.7,0,1.5-0.4,1.5-1.8h1v10.8h-1c0-1.6-0.8-1.9-1.5-1.9H64.5v6.5h15.2c0.6,0,1.5-0.3,1.5-1.9h1
		v10.5h-1c0-1.5-0.8-1.8-1.5-1.8H64.5v8H87.4z"/>
	<path class="st2" d="M100.3,291.7l1,0.4c0,0.3-0.1,0.5-0.1,0.9c0,2.1,9.3,4.2,15.8,4.2c2,0,7.3-0.3,7.3-3.5
		c0-6.4-26.4-0.2-26.4-13.8c0-4.9,4.8-12,17.9-12c7.7,0,14.3,2.1,16.1,2.1c0.9,0,1.4-0.6,1.8-1l0.9,0.4l-4.9,10.2l-1-0.5
		c0-0.3,0.1-0.6,0.1-0.9c0-0.8-5.7-3-11.2-3c-2,0-9.2,0-9.2,3.5c0,5.7,26.4-0.2,26.4,13.9c0,6.3-5.4,11.8-17.8,11.8
		c-7.7,0-16.8-2.9-17.4-2.9c-0.7,0-1.3,0.6-1.8,1.1l-0.9-0.2L100.3,291.7z"/>
	<path class="st2" d="M176.3,268.5c0.7,0,1.5-0.4,1.5-1.8h0.9v11.8h-0.9c0-1.5-0.8-1.8-1.5-1.8h-11.5v24.9c0,1.1,1,1.4,1.9,1.5v1
		h-14.6v-1c0.9-0.1,1.9-0.3,1.9-1.5v-24.9h-11.5c-0.7,0-1.5,0.3-1.5,1.8h-1v-11.8h1c0,1.4,0.8,1.8,1.5,1.8H176.3z"/>
	<path class="st2" d="M199.1,291.1l6.6-14.1l6.8,14.1H199.1z M230,304.1v-1c-0.6,0-1.4-0.2-1.7-0.8c-3.5-8.3-14.9-31-14.9-32
		c0-0.5,0.3-0.7,1.1-0.8v-1h-16.9v1c0.8,0.1,1,0.2,1,0.8c0,1.1-7.5,16.9-13.9,32c-0.3,0.6-1,0.8-1.6,0.8v1h12.1v-1c-0.3,0-1,0-1-0.7
		c0-0.9,1.8-4,2.3-5.5h18.8c0.5,1.5,2.3,4.6,2.3,5.5c0,0.7-0.7,0.7-1,0.7v1H230z"/>
	<path class="st2" d="M239.8,270.9c0-1.1-1-1.3-2.4-1.4v-1H252v1c-0.5,0.1-1.3,0.3-1.3,1.4v19.6c0,4.2,3.4,5.8,8.1,5.8
		c4.6,0,8.1-1.6,8.1-5.8v-19.6c0-1.1-0.9-1.3-1.4-1.4v-1H280v1c-1.3,0.1-2.3,0.3-2.3,1.4v17.9c0,8.5-4.7,15.8-18.9,15.8
		c-14.2,0-18.9-7.3-18.9-15.8V270.9z"/>
	<path class="st2" d="M301.5,275.3h10.9c4.7,0,6.1,1.8,6.1,4.4c0,2.9-2.2,4.4-5.6,4.4h-11.5V275.3z M291.3,301.6
		c0,1.1-1,1.4-1.6,1.5v1h13.9v-1c-1.2-0.1-2.1-0.3-2.1-1.5v-10.8h7.8c0.6,1.4,6.1,10.2,6.1,11.3c0,0.8-1.2,1-1.9,1v1h16.3v-1
		c-1.2,0-2.2-0.7-2.8-1.6l-7.2-10.8c5-1.9,9-5.1,9-10.9c0-7.4-5.3-11.2-13.2-11.2h-25.9v1c0.8,0.1,1.8,0.3,1.8,1.4V301.6z"/>
	<path class="st2" d="M350.5,291.1l6.6-14.1l6.8,14.1H350.5z M381.3,304.1v-1c-0.7,0-1.3-0.2-1.6-0.8c-3.6-8.3-14.9-31-14.9-32
		c0-0.5,0.3-0.7,1-0.8v-1H349v1c0.8,0.1,1,0.2,1,0.8c0,1.1-7.5,16.9-14,32c-0.3,0.6-1,0.8-1.7,0.8v1h12.1v-1c-0.3,0-1,0-1-0.7
		c0-0.9,1.8-4,2.3-5.5h18.7c0.5,1.5,2.3,4.6,2.3,5.5c0,0.7-0.7,0.7-1.1,0.7v1H381.3z"/>
	<path class="st2" d="M430,301.6c0,1.1,0.9,1.4,2.2,1.5v1h-15v-1c0.8,0,2.4-0.1,2.4-1c0-1.9-10.3-11.2-19.5-21.8l-0.1,0.2v21.2
		c0,1.1,1,1.4,2.1,1.5v1h-13.8v-1c1.1-0.1,2-0.3,2-1.5v-30.7c0-1.1-1-1.3-2.2-1.4v-1h19.2v1c-0.7,0.1-1.7,0.3-1.7,1.4
		c0,0.6,7.9,8.6,14.7,16v-16c0-1.1-1-1.3-2.3-1.4v-1h14.2v1c-1.3,0.1-2.2,0.3-2.2,1.4V301.6z"/>
	<path class="st2" d="M474.6,268.5c0.6,0,1.4-0.4,1.4-1.8h0.9v11.8h-0.9c0-1.5-0.8-1.8-1.4-1.8H463v24.9c0,1.1,1,1.4,1.9,1.5v1
		h-14.6v-1c0.9-0.1,1.8-0.3,1.8-1.5v-24.9h-11.5c-0.7,0-1.5,0.3-1.5,1.8h-1v-11.8h1c0,1.4,0.8,1.8,1.5,1.8H474.6z"/>
	<path class="st2" d="M484.5,291.7l1,0.4c0,0.3-0.1,0.5-0.1,0.9c0,2.1,9.3,4.2,15.8,4.2c2.1,0,7.4-0.3,7.4-3.5
		c0-6.4-26.5-0.2-26.5-13.8c0-4.9,4.8-12,18-12c7.7,0,14.3,2.1,16.1,2.1c0.9,0,1.4-0.6,1.8-1l0.8,0.4l-4.8,10.2l-1-0.5
		c0-0.3,0.1-0.6,0.1-0.9c0-0.8-5.7-3-11.2-3c-2,0-9.2,0-9.2,3.5c0,5.7,26.4-0.2,26.4,13.9c0,6.3-5.4,11.8-17.8,11.8
		c-7.7,0-16.8-2.9-17.4-2.9c-0.8,0-1.3,0.6-1.9,1.1l-0.9-0.2L484.5,291.7z"/>
</g>
</svg>
