<?xml version="1.0" encoding="utf-8"?>
<!-- Generator: Adobe Illustrator 19.1.0, SVG Export Plug-In . SVG Version: 6.00 Build 0)  -->
<svg version="1.1" id="Layer_1" xmlns="http://www.w3.org/2000/svg" xmlns:xlink="http://www.w3.org/1999/xlink" x="0px" y="0px"
	 viewBox="0 0 71 71" style="enable-background:new 0 0 71 71;" xml:space="preserve">
<style type="text/css">
	.st0{fill:#EA242A;}
	.st1{fill:#FFFFFF;}
</style>
<g>
	<path class="st0" d="M35.5,71L35.5,71C15.9,71,0,55.1,0,35.5v0C0,15.9,15.9,0,35.5,0h0C55.1,0,71,15.9,71,35.5v0
		C71,55.1,55.1,71,35.5,71z"/>
	<path class="st1" d="M51.1,45l-5-5c-1-1-2.7-1-3.7,0.1l-2.5,2.5c-0.2-0.1-0.3-0.2-0.5-0.3c-1.6-0.9-3.8-2.1-6.1-4.4
		c-2.3-2.3-3.5-4.5-4.4-6.1c-0.1-0.2-0.2-0.3-0.3-0.5l1.7-1.7l0.8-0.8c1-1,1.1-2.7,0.1-3.7l-5-5c-1-1-2.7-1-3.7,0.1l-1.4,1.4l0,0
		c-0.5,0.6-0.9,1.3-1.2,2.1c-0.3,0.7-0.4,1.4-0.5,2.1C18.6,31.2,21.1,36.2,28,43c9.5,9.5,17.1,8.7,17.4,8.7c0.7-0.1,1.4-0.3,2.1-0.5
		c0.7-0.3,1.5-0.7,2.1-1.2l0,0l1.4-1.4C52.1,47.6,52.1,46,51.1,45L51.1,45z M51.1,45"/>
</g>
</svg>
